<svg width="970" height="489" viewBox="0 0 970 489" fill="none" xmlns="http://www.w3.org/2000/svg">
<path d="M162.575 164.1H167.675L148.775 232.2C140.975 227.4 128.075 225 109.775 225H0.275001V220.8C8.675 219.6 16.775 211.2 16.775 197.1V37.5C16.775 22.8 8.975 14.4 0.275001 13.2V8.99999H103.775C122.675 8.99999 136.175 6.29999 143.975 0.899988L162.275 61.8H157.175C149.975 45.9 144.875 37.8 132.875 28.2C121.175 18.3 102.875 14.1 76.475 14.1H52.475V98.4H80.375C105.875 98.4 116.675 90.3 117.875 72.3H122.375V129.9H117.875C115.775 111.9 105.875 103.8 80.375 103.8H52.475V213C61.775 217.5 73.475 219.9 88.175 219.9C125.675 219.9 148.475 202.2 162.575 164.1ZM313.595 129.9V195.9C313.595 211.2 321.995 219.9 330.695 221.1V225H264.095V221.1C272.495 219.9 280.895 211.2 280.895 195.9V133.2C280.895 95.1 271.595 81.9 253.895 81.9C241.895 81.9 229.895 91.5 221.795 109.5V195.9C221.795 211.5 227.495 219.9 238.895 221.1V225H172.295V221.4C180.995 220.2 189.095 211.5 189.095 195.9V106.8C189.095 91.2 180.995 85.2 172.295 84.9V80.7L222.095 69.6L217.295 110.1C227.195 85.2 244.895 71.1 265.295 71.1C296.795 71.1 313.595 92.4 313.595 129.9ZM518.302 78.6V75H570.202V78.9C557.902 80.7 547.702 90.9 539.602 109.8C535.102 119.7 528.802 135.3 520.702 156.3L513.802 173.4L511.102 180.3C508.702 186.6 508.702 188.1 506.602 193.2C503.302 202.8 503.302 210.6 504.202 218.4C493.702 220.5 485.002 224.1 477.802 229.8C469.702 203.7 458.602 172.5 444.502 135.6C440.602 145.2 437.602 152.1 436.102 156.3L429.202 173.4L426.502 180.3C424.102 186.6 424.102 188.1 422.002 193.2C418.702 202.8 418.702 210.6 419.602 218.4C410.302 219.6 401.602 223.5 393.202 229.8C387.802 212.1 373.702 173.1 351.202 112.8C343.402 91.8 334.702 80.4 324.802 78.9V75H393.202V78.9C380.302 80.1 377.902 92.1 385.402 114.6C387.502 120.9 392.302 134.7 400.102 156.3C408.202 177.6 413.002 191.7 415.102 198.3C417.202 192 422.602 177.3 431.302 154.8L435.802 142.8C438.502 136.5 440.302 131.4 441.502 127.8L436.102 113.7C428.602 92.7 419.602 81 409.402 78.9V75H477.802V78.9C464.602 80.4 461.902 89.7 470.002 114.6C472.102 120.9 477.202 135 485.002 156.3C492.802 177.6 497.602 191.4 499.702 198.3C501.802 191.1 507.202 176.7 515.902 154.8C525.802 129.6 531.202 114.3 532.702 108.6C537.202 90.6 532.402 80.7 518.302 78.6ZM618.87 8.99999L645.27 54.9H640.17L579.27 8.99999H618.87ZM646.47 205.5C662.97 205.5 680.67 196.2 689.97 177.9V186C681.57 211.5 658.17 228.9 629.67 228.9C609.57 228.9 592.77 221.1 578.67 205.5C564.87 189.6 557.97 171 557.97 149.1C557.97 127.2 564.87 108.9 578.37 93.9C592.17 78.6 609.27 71.1 629.37 71.1C644.97 71.1 658.47 75.9 670.17 85.5C681.87 95.1 688.77 107.4 691.47 122.7L589.77 143.4C591.87 161.1 597.87 175.8 607.47 187.8C617.07 199.5 629.97 205.5 646.47 205.5ZM617.67 77.1C611.37 77.1 605.67 80.1 601.17 86.1C591.87 98.1 588.87 114 588.87 128.7C588.87 132.6 588.87 135.9 589.17 138L639.57 127.2C647.67 125.1 651.57 120.6 651.57 113.7C651.57 105 648.27 96.9 641.37 89.1C634.47 81 626.67 77.1 617.67 77.1ZM797.434 79.2V75H846.634V78.9C843.634 79.5 840.934 80.4 838.834 81.6C834.334 83.7 825.334 93.9 818.434 111C806.734 140.7 794.434 175.8 781.534 216L776.734 231.3C774.634 238.2 772.834 242.7 771.934 245.4C771.034 248.1 769.834 252.3 767.734 257.4C765.934 262.8 764.434 266.4 763.234 268.5C760.834 273 756.334 282.3 752.734 285C747.034 289.8 738.634 295.2 728.134 294.3C707.734 294.3 692.434 279 692.134 261C692.134 248.7 699.934 240.6 711.634 240.6C720.034 240.6 727.534 245.1 727.534 254.7C727.534 261.6 720.634 268.8 720.634 272.4C720.634 281.7 726.034 286.2 736.534 286.2C744.934 286.2 751.834 280.8 756.934 270C763.834 257.7 764.434 244.2 758.734 229.2L715.534 114.9C705.634 88.5 698.134 79.8 688.834 78.9V75H756.934V78.9C748.834 79.8 744.634 84.6 744.634 93.3C744.634 99.6 747.034 109.2 751.534 121.5L759.634 143.7C768.934 167.7 776.434 188.7 780.334 201.9C789.034 174.6 797.134 150.6 804.934 129.6C810.634 114 813.334 102.9 813.334 96.3C813.334 84.6 807.034 79.2 797.434 79.2ZM924.662 205.5C941.162 205.5 958.862 196.2 968.162 177.9V186C959.762 211.5 936.362 228.9 907.862 228.9C887.762 228.9 870.962 221.1 856.862 205.5C843.062 189.6 836.162 171 836.162 149.1C836.162 127.2 843.062 108.9 856.562 93.9C870.362 78.6 887.462 71.1 907.562 71.1C923.162 71.1 936.662 75.9 948.362 85.5C960.062 95.1 966.962 107.4 969.662 122.7L867.962 143.4C870.062 161.1 876.062 175.8 885.662 187.8C895.262 199.5 908.162 205.5 924.662 205.5ZM895.862 77.1C889.562 77.1 883.862 80.1 879.362 86.1C870.062 98.1 867.062 114 867.062 128.7C867.062 132.6 867.062 135.9 867.362 138L917.762 127.2C925.862 125.1 929.762 120.6 929.762 113.7C929.762 105 926.462 96.9 919.562 89.1C912.662 81 904.862 77.1 895.862 77.1ZM282.421 256.4V455C282.421 472.1 290.521 479.6 299.221 480.8V485H250.321L253.921 460.1C241.921 479.3 226.621 488.9 208.021 488.9C188.521 488.9 172.621 481.4 160.621 466.4C148.921 451.4 142.921 432.8 142.921 410.3C142.921 388.4 149.221 369.8 161.821 354.5C174.721 338.9 190.321 331.1 209.221 331.1C225.121 331.1 238.621 336.8 249.721 348.5V293.9C249.721 278 241.321 270.2 232.921 271.4V267.2L282.421 256.4ZM218.221 478.1C231.121 478.1 241.621 470.9 249.721 456.5V368.9C241.621 349.7 227.821 336.8 209.821 336.8C197.821 336.8 189.121 342.8 183.721 354.5C178.621 366.2 175.921 380.9 175.921 398.9C175.921 421.7 179.521 440.6 186.721 455.6C194.221 470.6 204.721 478.1 218.221 478.1ZM384.431 488.9C363.431 488.9 345.431 481.1 330.731 465.8C316.031 450.2 308.531 431.6 308.531 410C308.531 388.4 316.031 369.8 330.731 354.5C345.431 338.9 363.431 331.1 384.431 331.1C405.131 331.1 423.131 338.9 437.831 354.5C452.831 369.8 460.331 388.4 460.331 410C460.331 431.6 452.831 450.2 437.831 465.8C423.131 481.1 405.131 488.9 384.431 488.9ZM425.831 428.9C425.831 402.8 417.131 372.8 400.331 352.7C392.231 342.5 383.231 337.4 373.931 337.4C355.031 337.4 342.731 359.3 342.731 390.2C342.731 403.1 344.831 416.9 349.031 431C353.531 445.1 359.831 457.4 367.931 467.6C376.031 477.8 385.031 482.9 394.331 482.9C413.231 482.9 425.831 460.1 425.831 428.9ZM610.495 389.9V455.9C610.495 471.2 618.895 479.9 627.595 481.1V485H560.995V481.1C569.395 479.9 577.795 471.2 577.795 455.9V393.2C577.795 355.1 568.495 341.9 550.795 341.9C538.795 341.9 526.795 351.5 518.695 369.5V455.9C518.695 471.5 524.395 479.9 535.795 481.1V485H469.195V481.4C477.895 480.2 485.995 471.5 485.995 455.9V366.8C485.995 351.2 477.895 345.2 469.195 344.9V340.7L518.995 329.6L514.195 370.1C524.095 345.2 541.795 331.1 562.195 331.1C593.695 331.1 610.495 352.4 610.495 389.9ZM704.697 488.9C684.597 488.9 667.797 481.1 653.997 465.5C640.497 449.6 633.597 431 633.597 409.1C633.597 388.4 640.497 370.1 653.997 354.5C667.797 338.9 683.997 331.1 702.597 331.1C719.097 331.1 733.197 335.6 744.297 344.3C755.697 353 761.397 363.2 761.397 374.6C761.397 387.8 753.297 397.4 743.997 397.4C735.297 397.4 727.197 390.5 727.197 380.6C727.197 374.3 733.797 365.3 733.797 359C733.497 348.2 721.797 336.2 702.597 336.2C678.597 336.2 663.297 357.8 663.297 389.3C663.297 412.7 668.697 431.3 679.497 444.8C690.297 458.3 704.397 465.2 721.797 465.2C737.397 465.2 755.097 457.1 764.997 437V444.5C755.397 473 731.397 488.9 704.697 488.9ZM775.275 467.6C775.275 455.9 784.575 446.6 796.275 446.6C807.975 446.6 817.275 455.9 817.275 467.6C817.275 479.6 807.975 488.9 796.275 488.9C784.575 488.9 775.275 479.6 775.275 467.6Z" fill="#F7F5E9"/>
</svg>
