<svg width="1049" height="343" viewBox="0 0 1049 343" fill="none" xmlns="http://www.w3.org/2000/svg">
<path d="M2.32 0.199996H40.26C63.78 0.199996 78.2 10.98 78.2 28.9C78.2 37.44 74.56 44.3 67.28 49.62C60.14 54.8 51.46 57.46 41.24 57.46H26.68V86.86C26.68 94.7 30.18 98.62 34.1 99.18V101H2.32V99.18C6.24 98.62 10.02 94.28 10.02 86.86V14.62C10.02 6.91999 7.5 2.86 2.32 2.16V0.199996ZM39.42 55.22C45.86 55.22 51.18 52.7 55.24 47.8C59.44 42.76 61.54 36.46 61.54 28.9C61.54 21.48 59.16 15.18 54.26 10.14C49.5 4.95999 43.48 2.43999 36.34 2.43999H26.68V53.82C29.76 54.8 33.96 55.22 39.42 55.22ZM113.247 102.82C103.447 102.82 95.047 99.18 88.187 92.04C81.327 84.76 77.827 76.08 77.827 66C77.827 55.92 81.327 47.24 88.187 40.1C95.047 32.82 103.447 29.18 113.247 29.18C122.907 29.18 131.307 32.82 138.167 40.1C145.167 47.24 148.667 55.92 148.667 66C148.667 76.08 145.167 84.76 138.167 92.04C131.307 99.18 122.907 102.82 113.247 102.82ZM132.567 74.82C132.567 62.64 128.507 48.64 120.667 39.26C116.887 34.5 112.687 32.12 108.347 32.12C99.527 32.12 93.787 42.34 93.787 56.76C93.787 62.78 94.767 69.22 96.727 75.8C98.827 82.38 101.767 88.12 105.547 92.88C109.327 97.64 113.527 100.02 117.867 100.02C126.687 100.02 132.567 89.38 132.567 74.82ZM181.644 102.82C168.204 102.82 161.484 93.3 161.484 74.26V46.54C161.484 38.56 157.844 35.06 153.504 35.48V33.52L176.744 28.48V74.26C176.744 87.14 181.644 94.56 190.604 94.56C194.244 94.56 197.324 92.74 199.984 89.24C202.644 85.74 204.044 81.96 204.464 78.18V46.54C204.464 38.14 200.964 35.06 196.624 35.48V33.52L219.724 28.48V86.16C219.724 94.28 222.244 98.62 227.424 99.18V101H204.324L205.724 83.92C203.904 89.1 200.824 93.58 196.484 97.36C192.144 101 187.104 102.82 181.644 102.82ZM274.605 29.18C280.345 29.18 284.545 32.82 284.545 38.28C284.545 43.18 281.185 46.4 276.845 46.4C270.405 46.4 270.265 37.86 265.925 37.86C262.985 37.86 258.925 42.34 256.125 48.92V87.42C256.125 94.7 258.785 98.62 264.105 99.18V101H233.025V99.32C237.085 98.76 240.865 94.7 240.865 87.42V45.84C240.865 38.56 237.085 35.76 233.025 35.62V33.66L256.265 28.48L254.025 47.94L254.165 47.8C258.925 35.34 265.785 29.18 274.605 29.18ZM354.104 102.82C344.724 102.82 336.884 99.18 330.444 91.9C324.144 84.48 320.924 75.8 320.924 65.58C320.924 55.92 324.144 47.38 330.444 40.1C336.884 32.82 344.444 29.18 353.124 29.18C360.824 29.18 367.404 31.28 372.584 35.34C377.904 39.4 380.564 44.16 380.564 49.48C380.564 55.64 376.784 60.12 372.444 60.12C368.384 60.12 364.604 56.9 364.604 52.28C364.604 49.34 367.684 45.14 367.684 42.2C367.544 37.16 362.084 31.56 353.124 31.56C341.924 31.56 334.784 41.64 334.784 56.34C334.784 67.26 337.304 75.94 342.344 82.24C347.384 88.54 353.964 91.76 362.084 91.76C369.364 91.76 377.624 87.98 382.244 78.6V82.1C377.764 95.4 366.564 102.82 354.104 102.82ZM422.04 102.82C412.24 102.82 403.84 99.18 396.98 92.04C390.12 84.76 386.62 76.08 386.62 66C386.62 55.92 390.12 47.24 396.98 40.1C403.84 32.82 412.24 29.18 422.04 29.18C431.7 29.18 440.1 32.82 446.96 40.1C453.96 47.24 457.46 55.92 457.46 66C457.46 76.08 453.96 84.76 446.96 92.04C440.1 99.18 431.7 102.82 422.04 102.82ZM441.36 74.82C441.36 62.64 437.3 48.64 429.46 39.26C425.68 34.5 421.48 32.12 417.14 32.12C408.32 32.12 402.58 42.34 402.58 56.76C402.58 62.78 403.56 69.22 405.52 75.8C407.62 82.38 410.56 88.12 414.34 92.88C418.12 97.64 422.32 100.02 426.66 100.02C435.48 100.02 441.36 89.38 441.36 74.82ZM571.637 56.62V87.42C571.637 94.56 575.557 98.62 579.617 99.18V101H548.537V99.18C552.457 98.62 556.377 94.56 556.377 87.42V58.16C556.377 40.38 552.037 34.22 543.777 34.22C538.177 34.22 532.717 38.56 528.937 46.82V87.42C528.937 94.56 532.857 98.62 536.917 99.18V101H505.837V99.18C509.757 98.62 513.677 94.56 513.677 87.42V58.16C513.677 40.38 509.337 34.22 501.077 34.22C495.477 34.22 489.877 38.7 486.097 47.1V87.42C486.097 94.7 488.757 98.62 494.077 99.18V101H462.997V99.32C467.057 98.76 470.837 94.7 470.837 87.42V45.84C470.837 38.56 467.057 35.76 462.997 35.62V33.66L486.237 28.48L483.997 47.38C488.617 35.76 496.877 29.18 506.397 29.18C517.597 29.18 524.597 34.5 527.537 45.28C532.437 34.5 539.577 29.18 548.957 29.18C563.657 29.18 571.637 39.12 571.637 56.62ZM693.114 56.62V87.42C693.114 94.56 697.034 98.62 701.094 99.18V101H670.014V99.18C673.934 98.62 677.854 94.56 677.854 87.42V58.16C677.854 40.38 673.514 34.22 665.254 34.22C659.654 34.22 654.194 38.56 650.414 46.82V87.42C650.414 94.56 654.334 98.62 658.394 99.18V101H627.314V99.18C631.234 98.62 635.154 94.56 635.154 87.42V58.16C635.154 40.38 630.814 34.22 622.554 34.22C616.954 34.22 611.354 38.7 607.574 47.1V87.42C607.574 94.7 610.234 98.62 615.554 99.18V101H584.474V99.32C588.534 98.76 592.314 94.7 592.314 87.42V45.84C592.314 38.56 588.534 35.76 584.474 35.62V33.66L607.714 28.48L605.474 47.38C610.094 35.76 618.354 29.18 627.874 29.18C639.074 29.18 646.074 34.5 649.014 45.28C653.914 34.5 661.054 29.18 670.434 29.18C685.134 29.18 693.114 39.12 693.114 56.62ZM746.551 91.9C754.251 91.9 762.511 87.56 766.851 79.02V82.8C762.931 94.7 752.011 102.82 738.711 102.82C729.331 102.82 721.491 99.18 714.911 91.9C708.471 84.48 705.251 75.8 705.251 65.58C705.251 55.36 708.471 46.82 714.771 39.82C721.211 32.68 729.191 29.18 738.571 29.18C745.851 29.18 752.151 31.42 757.611 35.9C763.071 40.38 766.291 46.12 767.551 53.26L720.091 62.92C721.071 71.18 723.871 78.04 728.351 83.64C732.831 89.1 738.851 91.9 746.551 91.9ZM733.111 31.98C730.171 31.98 727.511 33.38 725.411 36.18C721.071 41.78 719.671 49.2 719.671 56.06C719.671 57.88 719.671 59.42 719.811 60.4L743.331 55.36C747.111 54.38 748.931 52.28 748.931 49.06C748.931 45 747.391 41.22 744.171 37.58C740.951 33.8 737.311 31.98 733.111 31.98ZM837.861 56.62V87.42C837.861 94.56 841.781 98.62 845.841 99.18V101H814.761V99.18C818.681 98.62 822.601 94.56 822.601 87.42V58.16C822.601 40.38 818.261 34.22 810.001 34.22C804.401 34.22 798.801 38.7 795.021 47.1V87.42C795.021 94.7 797.681 98.62 803.001 99.18V101H771.921V99.32C775.981 98.76 779.761 94.7 779.761 87.42V45.84C779.761 38.56 775.981 35.76 771.921 35.62V33.66L795.161 28.48L792.921 47.38C797.541 35.76 805.801 29.18 815.321 29.18C830.021 29.18 837.861 39.12 837.861 56.62ZM883.222 102.82C873.842 102.82 866.002 99.18 859.562 91.9C853.262 84.48 850.042 75.8 850.042 65.58C850.042 55.92 853.262 47.38 859.562 40.1C866.002 32.82 873.562 29.18 882.242 29.18C889.942 29.18 896.522 31.28 901.702 35.34C907.022 39.4 909.682 44.16 909.682 49.48C909.682 55.64 905.902 60.12 901.562 60.12C897.502 60.12 893.722 56.9 893.722 52.28C893.722 49.34 896.802 45.14 896.802 42.2C896.662 37.16 891.202 31.56 882.242 31.56C871.042 31.56 863.902 41.64 863.902 56.34C863.902 67.26 866.422 75.94 871.462 82.24C876.502 88.54 883.082 91.76 891.202 91.76C898.482 91.76 906.742 87.98 911.362 78.6V82.1C906.882 95.4 895.682 102.82 883.222 102.82ZM957.038 91.9C964.738 91.9 972.998 87.56 977.338 79.02V82.8C973.418 94.7 962.498 102.82 949.198 102.82C939.818 102.82 931.978 99.18 925.398 91.9C918.958 84.48 915.738 75.8 915.738 65.58C915.738 55.36 918.958 46.82 925.258 39.82C931.698 32.68 939.678 29.18 949.058 29.18C956.338 29.18 962.638 31.42 968.098 35.9C973.558 40.38 976.778 46.12 978.038 53.26L930.578 62.92C931.558 71.18 934.358 78.04 938.838 83.64C943.318 89.1 949.338 91.9 957.038 91.9ZM943.598 31.98C940.658 31.98 937.998 33.38 935.898 36.18C931.558 41.78 930.158 49.2 930.158 56.06C930.158 57.88 930.158 59.42 930.298 60.4L953.818 55.36C957.598 54.38 959.418 52.28 959.418 49.06C959.418 45 957.878 41.22 954.658 37.58C951.438 33.8 947.798 31.98 943.598 31.98ZM1023.99 29.18C1029.73 29.18 1033.93 32.82 1033.93 38.28C1033.93 43.18 1030.57 46.4 1026.23 46.4C1019.79 46.4 1019.65 37.86 1015.31 37.86C1012.37 37.86 1008.31 42.34 1005.51 48.92V87.42C1005.51 94.7 1008.17 98.62 1013.49 99.18V101H982.407V99.32C986.467 98.76 990.247 94.7 990.247 87.42V45.84C990.247 38.56 986.467 35.76 982.407 35.62V33.66L1005.65 28.48L1003.41 47.94L1003.55 47.8C1008.31 35.34 1015.17 29.18 1023.99 29.18ZM1026.65 123.54V121.58C1036.31 116.12 1042.89 106.74 1043.45 98.2L1042.75 98.06C1041.77 101.28 1039.67 102.82 1036.31 102.82C1032.39 102.82 1028.05 98.9 1028.05 92.88C1028.05 87.14 1032.25 82.94 1037.85 82.94C1044.71 82.94 1048.35 88.12 1048.35 94.84C1048.35 104.78 1042.33 115.7 1026.65 123.54ZM66.02 114.32V207C66.02 214.98 69.8 218.48 73.86 219.04V221H51.04L52.72 209.38C47.12 218.34 39.98 222.82 31.3 222.82C22.2 222.82 14.78 219.32 9.18 212.32C3.72 205.32 0.92 196.64 0.92 186.14C0.92 175.92 3.86 167.24 9.74 160.1C15.76 152.82 23.04 149.18 31.86 149.18C39.28 149.18 45.58 151.84 50.76 157.3V131.82C50.76 124.4 46.84 120.76 42.92 121.32V119.36L66.02 114.32ZM36.06 217.78C42.08 217.78 46.98 214.42 50.76 207.7V166.82C46.98 157.86 40.54 151.84 32.14 151.84C26.54 151.84 22.48 154.64 19.96 160.1C17.58 165.56 16.32 172.42 16.32 180.82C16.32 191.46 18 200.28 21.36 207.28C24.86 214.28 29.76 217.78 36.06 217.78ZM95.2844 138.4C90.2444 138.4 86.0444 134.2 86.0444 129.16C86.0444 123.98 90.2444 119.64 95.2844 119.64C100.464 119.64 104.804 123.98 104.804 129.16C104.804 134.2 100.464 138.4 95.2844 138.4ZM110.824 221H80.3044V219.18C84.2244 218.62 88.0044 214.98 88.0044 207.14V166.68C88.0044 158.7 84.2244 155.62 80.3044 155.48V153.52L103.404 148.48V207.14C103.404 214.98 106.764 218.62 110.824 219.18V221ZM159.322 148.34L158.482 153.94H139.442V200.56C139.442 209.66 142.802 214.98 146.722 215.68C150.782 216.38 154.702 215.4 156.942 213.58V215.54C155.542 217.36 149.802 222.68 140.002 222.68C130.902 222.68 124.182 215.82 124.182 201.96V153.94H113.122V151C118.722 150.02 123.762 146.94 128.242 141.9C132.862 136.86 135.802 131.54 137.342 126.08H139.442V151H140.982C147.422 151 153.582 150.16 159.322 148.34ZM201.437 211.9C209.137 211.9 217.397 207.56 221.737 199.02V202.8C217.817 214.7 206.897 222.82 193.597 222.82C184.217 222.82 176.377 219.18 169.797 211.9C163.357 204.48 160.137 195.8 160.137 185.58C160.137 175.36 163.357 166.82 169.657 159.82C176.097 152.68 184.077 149.18 193.457 149.18C200.737 149.18 207.037 151.42 212.497 155.9C217.957 160.38 221.177 166.12 222.437 173.26L174.977 182.92C175.957 191.18 178.757 198.04 183.237 203.64C187.717 209.1 193.737 211.9 201.437 211.9ZM187.997 151.98C185.057 151.98 182.397 153.38 180.297 156.18C175.957 161.78 174.557 169.2 174.557 176.06C174.557 177.88 174.557 179.42 174.697 180.4L198.217 175.36C201.997 174.38 203.817 172.28 203.817 169.06C203.817 165 202.277 161.22 199.057 157.58C195.837 153.8 192.197 151.98 187.997 151.98ZM258.134 222.82C253.234 222.82 247.774 221.56 244.974 220.86C242.174 219.88 238.114 220.3 233.634 222.68L227.614 194.96H229.854C232.234 201.54 235.874 207.56 240.774 212.74C245.814 217.92 251.554 220.58 258.134 220.58C265.414 220.58 270.874 215.68 270.874 207.42C270.874 200.84 264.294 196.5 256.314 193.28C244.834 188.94 229.294 183.48 229.574 167.94C229.574 162.34 231.674 157.86 236.014 154.36C240.354 150.86 245.534 149.18 251.694 149.18C253.934 149.18 256.594 149.6 259.534 150.58C265.694 152.26 269.894 152.68 274.794 149.18L279.834 174.24H277.594C275.354 168.22 271.714 162.9 266.534 158.28C261.354 153.66 256.314 151.42 251.134 151.42C244.274 151.42 238.814 154.78 239.374 162.2C239.794 167.8 246.794 171.72 255.194 174.94C267.514 179.42 283.474 186.14 283.194 202.66C283.194 208.68 280.814 213.44 275.914 217.22C271.014 221 265.134 222.82 258.134 222.82ZM357.099 222.82C347.299 222.82 338.899 219.18 332.039 212.04C325.179 204.76 321.679 196.08 321.679 186C321.679 175.92 325.179 167.24 332.039 160.1C338.899 152.82 347.299 149.18 357.099 149.18C366.759 149.18 375.159 152.82 382.019 160.1C389.019 167.24 392.519 175.92 392.519 186C392.519 196.08 389.019 204.76 382.019 212.04C375.159 219.18 366.759 222.82 357.099 222.82ZM376.419 194.82C376.419 182.64 372.359 168.64 364.519 159.26C360.739 154.5 356.539 152.12 352.199 152.12C343.379 152.12 337.639 162.34 337.639 176.76C337.639 182.78 338.619 189.22 340.579 195.8C342.679 202.38 345.619 208.12 349.399 212.88C353.179 217.64 357.379 220.02 361.719 220.02C370.539 220.02 376.419 209.38 376.419 194.82ZM425.495 222.82C412.055 222.82 405.335 213.3 405.335 194.26V166.54C405.335 158.56 401.695 155.06 397.355 155.48V153.52L420.595 148.48V194.26C420.595 207.14 425.495 214.56 434.455 214.56C438.095 214.56 441.175 212.74 443.835 209.24C446.495 205.74 447.895 201.96 448.315 198.18V166.54C448.315 158.14 444.815 155.06 440.475 155.48V153.52L463.575 148.48V206.16C463.575 214.28 466.095 218.62 471.275 219.18V221H448.175L449.575 203.92C447.755 209.1 444.675 213.58 440.335 217.36C435.995 221 430.955 222.82 425.495 222.82ZM491.856 138.4C486.816 138.4 482.616 134.2 482.616 129.16C482.616 123.98 486.816 119.64 491.856 119.64C497.036 119.64 501.376 123.98 501.376 129.16C501.376 134.2 497.036 138.4 491.856 138.4ZM507.396 221H476.876V219.18C480.796 218.62 484.576 214.98 484.576 207.14V166.68C484.576 158.7 480.796 155.62 476.876 155.48V153.52L499.976 148.48V207.14C499.976 214.98 503.336 218.62 507.396 219.18V221ZM587.221 141.62H584.841L556.421 120.2H574.901L587.221 141.62ZM564.821 222.82C553.481 222.82 545.361 217.5 545.361 205.88C545.361 202.94 546.201 200.14 547.881 197.62C551.241 192.58 555.161 189.92 562.441 187.12C566.081 185.72 569.161 184.74 571.541 184.04C573.921 183.34 577.001 182.64 580.641 181.94L587.641 180.26V171.86C587.641 157.86 581.621 151.56 573.221 151.56C566.641 151.56 562.861 155.9 562.861 160.94C562.861 163.74 564.821 167.8 564.821 170.74C564.821 174.66 561.321 177.46 556.421 177.46C551.801 177.46 549.001 173.68 549.001 168.64C549.001 163.46 551.521 158.98 556.701 155.06C561.881 151.14 567.621 149.18 574.061 149.18C594.081 149.18 602.621 158.84 602.621 180.12V204.62C602.621 214.28 605.841 217.08 612.141 213.3V215.26C609.761 219.32 604.161 222.82 599.541 222.82C591.701 222.82 588.061 217.36 587.641 209.1C583.301 218.06 573.781 222.82 564.821 222.82ZM587.641 200.56V182.36C586.801 182.78 584.841 183.48 581.621 184.74L575.181 187.12C574.061 187.54 572.381 188.52 570.001 189.78C567.621 191.04 566.081 192.16 565.101 193.28C563.281 195.38 561.181 199.02 561.181 202.94C561.181 211.2 565.661 215.68 572.521 215.68C576.021 215.68 579.381 214.28 582.601 211.62C585.961 208.96 587.641 205.18 587.641 200.56ZM715.23 176.62V207.42C715.23 214.56 719.15 218.62 723.21 219.18V221H692.13V219.18C696.05 218.62 699.97 214.56 699.97 207.42V178.16C699.97 160.38 695.63 154.22 687.37 154.22C681.77 154.22 676.17 158.7 672.39 167.1V207.42C672.39 214.7 675.05 218.62 680.37 219.18V221H649.29V219.32C653.35 218.76 657.13 214.7 657.13 207.42V165.84C657.13 158.56 653.35 155.76 649.29 155.62V153.66L672.53 148.48L670.29 167.38C674.91 155.76 683.17 149.18 692.69 149.18C707.39 149.18 715.23 159.12 715.23 176.62ZM762.831 222.82C753.031 222.82 744.631 219.18 737.771 212.04C730.911 204.76 727.411 196.08 727.411 186C727.411 175.92 730.911 167.24 737.771 160.1C744.631 152.82 753.031 149.18 762.831 149.18C772.491 149.18 780.891 152.82 787.751 160.1C794.751 167.24 798.251 175.92 798.251 186C798.251 196.08 794.751 204.76 787.751 212.04C780.891 219.18 772.491 222.82 762.831 222.82ZM782.151 194.82C782.151 182.64 778.091 168.64 770.251 159.26C766.471 154.5 762.271 152.12 757.931 152.12C749.111 152.12 743.371 162.34 743.371 176.76C743.371 182.78 744.351 189.22 746.311 195.8C748.411 202.38 751.351 208.12 755.131 212.88C758.911 217.64 763.111 220.02 767.451 220.02C776.271 220.02 782.151 209.38 782.151 194.82ZM847.187 148.34L846.347 153.94H827.307V200.56C827.307 209.66 830.667 214.98 834.587 215.68C838.647 216.38 842.567 215.4 844.807 213.58V215.54C843.407 217.36 837.667 222.68 827.867 222.68C818.767 222.68 812.047 215.82 812.047 201.96V153.94H800.987V151C806.587 150.02 811.627 146.94 816.107 141.9C820.727 136.86 823.667 131.54 825.207 126.08H827.307V151H828.847C835.287 151 841.447 150.16 847.187 148.34ZM892.333 149.18C898.073 149.18 902.273 152.82 902.273 158.28C902.273 163.18 898.913 166.4 894.573 166.4C888.133 166.4 887.993 157.86 883.653 157.86C880.713 157.86 876.653 162.34 873.853 168.92V207.42C873.853 214.7 876.513 218.62 881.833 219.18V221H850.753V219.32C854.813 218.76 858.593 214.7 858.593 207.42V165.84C858.593 158.56 854.813 155.76 850.753 155.62V153.66L873.993 148.48L871.753 167.94L871.893 167.8C876.653 155.34 883.513 149.18 892.333 149.18ZM943.65 211.9C951.35 211.9 959.61 207.56 963.95 199.02V202.8C960.03 214.7 949.11 222.82 935.81 222.82C926.43 222.82 918.59 219.18 912.01 211.9C905.57 204.48 902.35 195.8 902.35 185.58C902.35 175.36 905.57 166.82 911.87 159.82C918.31 152.68 926.29 149.18 935.67 149.18C942.95 149.18 949.25 151.42 954.71 155.9C960.17 160.38 963.39 166.12 964.65 173.26L917.19 182.92C918.17 191.18 920.97 198.04 925.45 203.64C929.93 209.1 935.95 211.9 943.65 211.9ZM930.21 151.98C927.27 151.98 924.61 153.38 922.51 156.18C918.17 161.78 916.77 169.2 916.77 176.06C916.77 177.88 916.77 179.42 916.91 180.4L940.43 175.36C944.21 174.38 946.03 172.28 946.03 169.06C946.03 165 944.49 161.22 941.27 157.58C938.05 153.8 934.41 151.98 930.21 151.98ZM16.6 258.4C11.56 258.4 7.36 254.2 7.36 249.16C7.36 243.98 11.56 239.64 16.6 239.64C21.78 239.64 26.12 243.98 26.12 249.16C26.12 254.2 21.78 258.4 16.6 258.4ZM32.14 341H1.62V339.18C5.54 338.62 9.32 334.98 9.32 327.14V286.68C9.32 278.7 5.54 275.62 1.62 275.48V273.52L24.72 268.48V327.14C24.72 334.98 28.08 338.62 32.14 339.18V341ZM103.178 296.62V327.42C103.178 334.56 107.098 338.62 111.158 339.18V341H80.078V339.18C83.998 338.62 87.918 334.56 87.918 327.42V298.16C87.918 280.38 83.578 274.22 75.318 274.22C69.718 274.22 64.118 278.7 60.338 287.1V327.42C60.338 334.7 62.998 338.62 68.318 339.18V341H37.238V339.32C41.298 338.76 45.078 334.7 45.078 327.42V285.84C45.078 278.56 41.298 275.76 37.238 275.62V273.66L60.478 268.48L58.238 287.38C62.858 275.76 71.118 269.18 80.638 269.18C95.338 269.18 103.178 279.12 103.178 296.62ZM147.279 251.68C147.279 249.58 148.959 246.22 148.959 244.12C148.959 240.2 146.299 237.54 141.679 237.54C137.199 237.54 133.979 241.32 133.979 246.5C133.979 249.16 134.819 253.22 136.499 258.68C138.179 264.14 139.159 268.34 139.299 271H155.259V273.94L139.299 273.52V326.16C139.299 335.12 141.679 338.62 147.139 339.18V341H116.059V339.18C121.239 338.76 123.899 334.42 123.899 326.16V273.24H116.059V271C122.219 271 124.319 265.68 125.859 255.46C127.959 242.72 134.539 234.32 145.179 234.32C149.799 234.32 153.999 236 157.639 239.22C161.419 242.44 163.239 246.5 163.239 251.12C163.239 255.74 159.879 259.52 154.979 259.52C150.079 259.52 147.279 256.16 147.279 251.68ZM190.499 342.82C180.699 342.82 172.299 339.18 165.439 332.04C158.579 324.76 155.079 316.08 155.079 306C155.079 295.92 158.579 287.24 165.439 280.1C172.299 272.82 180.699 269.18 190.499 269.18C200.159 269.18 208.559 272.82 215.419 280.1C222.419 287.24 225.919 295.92 225.919 306C225.919 316.08 222.419 324.76 215.419 332.04C208.559 339.18 200.159 342.82 190.499 342.82ZM209.819 314.82C209.819 302.64 205.759 288.64 197.919 279.26C194.139 274.5 189.939 272.12 185.599 272.12C176.779 272.12 171.039 282.34 171.039 296.76C171.039 302.78 172.019 309.22 173.979 315.8C176.079 322.38 179.019 328.12 182.799 332.88C186.579 337.64 190.779 340.02 195.119 340.02C203.939 340.02 209.819 329.38 209.819 314.82ZM262.255 341H231.595V339.18C235.515 338.62 239.435 334.42 239.435 327.14V251.82C239.435 244.4 235.515 240.9 231.595 241.32V239.36L254.695 234.32V327.14C254.695 334.84 258.195 338.48 262.255 339.18V341ZM309.45 331.9C317.15 331.9 325.41 327.56 329.75 319.02V322.8C325.83 334.7 314.91 342.82 301.61 342.82C292.23 342.82 284.39 339.18 277.81 331.9C271.37 324.48 268.15 315.8 268.15 305.58C268.15 295.36 271.37 286.82 277.67 279.82C284.11 272.68 292.09 269.18 301.47 269.18C308.75 269.18 315.05 271.42 320.51 275.9C325.97 280.38 329.19 286.12 330.45 293.26L282.99 302.92C283.97 311.18 286.77 318.04 291.25 323.64C295.73 329.1 301.75 331.9 309.45 331.9ZM296.01 271.98C293.07 271.98 290.41 273.38 288.31 276.18C283.97 281.78 282.57 289.2 282.57 296.06C282.57 297.88 282.57 299.42 282.71 300.4L306.23 295.36C310.01 294.38 311.83 292.28 311.83 289.06C311.83 285 310.29 281.22 307.07 277.58C303.85 273.8 300.21 271.98 296.01 271.98ZM378.22 268.34L377.38 273.94H358.34V320.56C358.34 329.66 361.7 334.98 365.62 335.68C369.68 336.38 373.6 335.4 375.84 333.58V335.54C374.44 337.36 368.7 342.68 358.9 342.68C349.8 342.68 343.08 335.82 343.08 321.96V273.94H332.02V271C337.62 270.02 342.66 266.94 347.14 261.9C351.76 256.86 354.7 251.54 356.24 246.08H358.34V271H359.88C366.32 271 372.48 270.16 378.22 268.34ZM425.186 268.34L424.346 273.94H405.306V320.56C405.306 329.66 408.666 334.98 412.586 335.68C416.646 336.38 420.566 335.4 422.806 333.58V335.54C421.406 337.36 415.666 342.68 405.866 342.68C396.766 342.68 390.046 335.82 390.046 321.96V273.94H378.986V271C384.586 270.02 389.626 266.94 394.106 261.9C398.726 256.86 401.666 251.54 403.206 246.08H405.306V271H406.846C413.286 271 419.446 270.16 425.186 268.34ZM470.331 269.18C476.071 269.18 480.271 272.82 480.271 278.28C480.271 283.18 476.911 286.4 472.571 286.4C466.131 286.4 465.991 277.86 461.651 277.86C458.711 277.86 454.651 282.34 451.851 288.92V327.42C451.851 334.7 454.511 338.62 459.831 339.18V341H428.751V339.32C432.811 338.76 436.591 334.7 436.591 327.42V285.84C436.591 278.56 432.811 275.76 428.751 275.62V273.66L451.991 268.48L449.751 287.94L449.891 287.8C454.651 275.34 461.511 269.18 470.331 269.18ZM521.649 331.9C529.349 331.9 537.609 327.56 541.949 319.02V322.8C538.029 334.7 527.109 342.82 513.809 342.82C504.429 342.82 496.589 339.18 490.009 331.9C483.569 324.48 480.349 315.8 480.349 305.58C480.349 295.36 483.569 286.82 489.869 279.82C496.309 272.68 504.289 269.18 513.669 269.18C520.949 269.18 527.249 271.42 532.709 275.9C538.169 280.38 541.389 286.12 542.649 293.26L495.189 302.92C496.169 311.18 498.969 318.04 503.449 323.64C507.929 329.1 513.949 331.9 521.649 331.9ZM508.209 271.98C505.269 271.98 502.609 273.38 500.509 276.18C496.169 281.78 494.769 289.2 494.769 296.06C494.769 297.88 494.769 299.42 494.909 300.4L518.429 295.36C522.209 294.38 524.029 292.28 524.029 289.06C524.029 285 522.489 281.22 519.269 277.58C516.049 273.8 512.409 271.98 508.209 271.98ZM548.138 332.88C548.138 327.42 552.478 323.08 557.938 323.08C563.398 323.08 567.738 327.42 567.738 332.88C567.738 338.48 563.398 342.82 557.938 342.82C552.478 342.82 548.138 338.48 548.138 332.88Z" fill="#3C78F0"/>
</svg>
