<svg width="240" height="65" viewBox="0 0 240 65" fill="none" xmlns="http://www.w3.org/2000/svg">
    <g id="Logo">
        <g id="Group 5">
            <g id="Group">
                <path id="Vector"
                    d="M44.6786 31.5601V16.53H53.5133V31.442C53.5133 34.8304 55.1838 36.2699 57.5224 36.2699C59.861 36.2699 61.5314 34.9448 61.5314 31.6376V16.53H70.3661V31.3645C70.3661 40.6697 65.2063 44.3312 57.4518 44.3312C49.6974 44.3312 44.6861 40.5922 44.6861 31.5601H44.6786Z"
                    fill="white" />
                <path id="Vector_2" d="M72.4867 16.53H81.1729V43.7886H72.4867V16.53Z" fill="white" />
                <g id="Group_2">
                    <path id="Vector_3"
                        d="M18.0708 28.7067C20.6507 26.1857 23.2714 26.684 25.7734 28.7067C28.1528 30.6298 28.2679 33.4313 28.2716 35.5721H29.7675C30.109 30.1831 28.6502 29.1755 27.5663 26.8833C26.6197 24.8754 24.9381 21.2655 28.7096 16.5225C22.039 17.5781 17.1428 23.3067 17.1428 30.3123V30.364C17.2765 29.7661 17.5734 29.1939 18.0708 28.7067Z"
                        fill="white" />
                    <path id="Vector_4"
                        d="M34.2408 26.8832C33.1606 29.1754 31.7017 30.183 32.0395 35.572H33.5355C33.5429 33.4312 33.6543 30.6297 36.0337 28.7066C38.5356 26.6839 41.1526 26.1856 43.7362 28.7066C44.2448 29.2049 44.5455 29.7918 44.6717 30.4082C44.6717 30.375 44.6717 30.3454 44.6717 30.3122V30.2347C44.6717 23.1958 39.7866 17.5079 33.0789 16.5039C36.8689 21.2543 35.1837 24.8716 34.2371 26.8832H34.2408Z"
                        fill="white" />
                    <path id="Vector_5"
                        d="M40.1423 35.3727C40.8067 34.5755 40.3761 33.3168 39.9455 32.8517C39.5149 32.3867 37.7183 31.2941 36.2335 33.35C35.7249 34.0956 35.5764 34.8634 35.543 35.5721H38.2009V37.9602H32.5251C32.5474 39.0232 32.7998 39.8722 35.0234 40.8798C34.7635 41.8543 33.4086 42.6479 32.5214 42.515C32.5214 43.028 32.347 43.6481 31.9498 44.235C38.4904 43.7478 43.5796 38.8461 44.5225 32.4605C43.91 34.258 42.1357 35.7419 40.146 35.3727H40.1423Z"
                        fill="white" />
                    <path id="Vector_6"
                        d="M29.2882 42.515C28.4011 42.6479 27.0462 41.8506 26.7863 40.8798C29.0098 39.8759 29.2623 39.0232 29.2845 37.9602H23.7387V35.5721H26.2629C26.2295 34.8634 26.081 34.0956 25.5725 33.35C24.0876 31.2941 22.2873 32.3867 21.8604 32.8517C21.4298 33.3168 20.9992 34.5755 21.6637 35.3727C19.674 35.7419 17.8996 34.258 17.2834 32.4568C18.1892 38.8903 23.2673 43.7847 29.8599 44.2387C29.459 43.6481 29.2845 43.028 29.2845 42.5113L29.2882 42.515Z"
                        fill="white" />
                </g>
            </g>
            <g id="Group_3">
                <path id="Vector_7" fill-rule="evenodd" clip-rule="evenodd"
                    d="M146.917 12.614H148.896L145.61 16.5049H143.636L146.917 12.614Z" fill="white" />
                <g id="Group_4">
                    <path id="Vector_8"
                        d="M110.071 44.6272L106.043 41.1317C103.486 43.4165 100.271 44.6235 96.7299 44.6235C88.7675 44.6235 82.7651 38.4372 82.7651 30.232V30.1545C82.7651 21.9492 88.7675 15.7629 96.7299 15.7629C104.692 15.7629 110.695 21.9492 110.695 30.1545V30.232C110.695 33.9415 109.403 37.4406 107.049 40.1241L111.014 43.5604L110.071 44.6309V44.6272ZM96.6891 17.1286C89.5805 17.1286 84.224 22.7096 84.224 30.1102V30.1877C84.224 36.6065 88.916 43.2467 96.7707 43.2467C99.8963 43.2467 102.725 42.1911 104.967 40.1905L98.9052 34.9418L99.848 33.8714L105.977 39.1865C108.081 36.8021 109.24 33.6462 109.24 30.2652V30.1877C109.24 23.7689 104.547 17.1286 96.6928 17.1286H96.6891Z"
                        fill="white" />
                    <path id="Vector_9"
                        d="M122.765 44.5822C115.62 44.5822 111.354 39.7874 111.354 31.752V16.2273H112.813V31.752C112.813 39.0345 116.455 43.2128 122.806 43.2128C129.158 43.2128 132.721 39.0492 132.721 31.7926V16.2273H134.18V31.752C134.18 39.7874 129.915 44.5822 122.769 44.5822H122.765Z"
                        fill="white" />
                    <path id="Vector_10"
                        d="M155.11 44.154H135.117V16.2273H154.917V17.6004H136.576V29.4266H153.228V30.7997H136.576V42.7846H155.114V44.1577L155.11 44.154Z"
                        fill="white" />
                    <path id="Vector_11"
                        d="M168.008 44.154H155.81V16.2273H167.377C170.643 16.2273 173.216 17.0689 174.812 18.656C176.041 19.8778 176.668 21.4723 176.668 23.3954V23.4729C176.668 26.4627 175.016 28.8213 172.284 29.8621C175.822 30.7886 178.119 33.4314 178.119 36.7128V36.7903C178.119 41.4706 174.433 44.154 168.004 44.154H168.008ZM157.269 42.7809H168.008C173.509 42.7809 176.664 40.6106 176.664 36.8272V36.7497C176.664 32.5825 172.652 30.7185 168.676 30.7185H157.269V42.7809ZM157.269 29.3491H168.008C171.49 29.3491 175.213 27.8173 175.213 23.5135V23.436C175.213 19.8372 172.195 17.6004 167.34 17.6004H157.269V29.3491Z"
                        fill="white" />
                    <path id="Vector_12"
                        d="M198.782 44.154H178.789V16.2273H198.589V17.6004H180.248V29.4266H196.9V30.7997H180.248V42.7846H198.786V44.1577L198.782 44.154Z"
                        fill="white" />
                    <path id="Vector_13"
                        d="M211.758 44.6191C204.06 44.6191 198.031 38.3148 198.031 30.2645V30.187C198.031 22.0962 204.097 15.7549 211.836 15.7549C217.367 15.7549 220.133 17.9363 222.486 20.1694L222.705 20.3798L221.695 21.3838L221.484 21.1808C219.286 19.0732 216.591 17.1243 211.792 17.1243C204.891 17.1243 199.483 22.8454 199.483 30.1464V30.2239C199.483 37.5249 204.891 43.246 211.792 43.246C216.51 43.246 219.724 40.8764 221.588 38.8869L221.792 38.6691L222.857 39.662L222.649 39.8761C219.635 43.0209 215.968 44.6154 211.751 44.6154L211.758 44.6191Z"
                        fill="white" />
                </g>
            </g>
        </g>
    </g>
</svg>