<svg width="1252" height="378" viewBox="0 0 1252 378" fill="none" xmlns="http://www.w3.org/2000/svg">
<path d="M67 0.419995L75.54 28.84H73.02C70.36 23.1 68.68 20.02 64.76 15.68C59.72 9.8 51.6 6.58 37.6 6.58H26.68V45.92H38.3C50.06 45.92 54.12 42.28 54.82 33.74H56.78V60.62H54.82C53.7 52.36 49.92 48.44 38.3 48.44H26.68V91C26.68 98.42 30.46 102.48 34.38 103.04V105H2.32V103.04C6.24 102.48 10.02 98.42 10.02 91V18.76C10.02 11.06 7.5 6.86 2.32 6.16V4.2H48.24C56.36 4.2 62.66 2.94 67 0.419995ZM90.1777 106.82C78.8377 106.82 70.7177 101.5 70.7177 89.88C70.7177 86.94 71.5577 84.14 73.2377 81.62C76.5977 76.58 80.5177 73.92 87.7977 71.12C91.4377 69.72 94.5177 68.74 96.8977 68.04C99.2777 67.34 102.358 66.64 105.998 65.94L112.998 64.26V55.86C112.998 41.86 106.978 35.56 98.5777 35.56C91.9977 35.56 88.2177 39.9 88.2177 44.94C88.2177 47.74 90.1777 51.8 90.1777 54.74C90.1777 58.66 86.6777 61.46 81.7777 61.46C77.1577 61.46 74.3577 57.68 74.3577 52.64C74.3577 47.46 76.8777 42.98 82.0577 39.06C87.2377 35.14 92.9777 33.18 99.4177 33.18C119.438 33.18 127.978 42.84 127.978 64.12V88.62C127.978 98.28 131.198 101.08 137.498 97.3V99.26C135.118 103.32 129.518 106.82 124.898 106.82C117.058 106.82 113.418 101.36 112.998 93.1C108.658 102.06 99.1377 106.82 90.1777 106.82ZM112.998 84.56V66.36C112.158 66.78 110.198 67.48 106.978 68.74L100.538 71.12C99.4177 71.54 97.7377 72.52 95.3577 73.78C92.9777 75.04 91.4377 76.16 90.4577 77.28C88.6377 79.38 86.5377 83.02 86.5377 86.94C86.5377 95.2 91.0177 99.68 97.8777 99.68C101.378 99.68 104.738 98.28 107.958 95.62C111.318 92.96 112.998 89.18 112.998 84.56ZM156.059 22.4C151.019 22.4 146.819 18.2 146.819 13.16C146.819 7.98 151.019 3.63999 156.059 3.63999C161.239 3.63999 165.579 7.98 165.579 13.16C165.579 18.2 161.239 22.4 156.059 22.4ZM171.599 105H141.079V103.18C144.999 102.62 148.779 98.98 148.779 91.14V50.68C148.779 42.7 144.999 39.62 141.079 39.48V37.52L164.179 32.48V91.14C164.179 98.98 167.539 102.62 171.599 103.18V105ZM220.097 32.34L219.257 37.94H200.217V84.56C200.217 93.66 203.577 98.98 207.497 99.68C211.557 100.38 215.477 99.4 217.717 97.58V99.54C216.317 101.36 210.577 106.68 200.777 106.68C191.677 106.68 184.957 99.82 184.957 85.96V37.94H173.897V35C179.497 34.02 184.537 30.94 189.017 25.9C193.637 20.86 196.577 15.54 198.117 10.08H200.217V35H201.757C208.197 35 214.357 34.16 220.097 32.34ZM262.211 95.9C269.911 95.9 278.171 91.56 282.511 83.02V86.8C278.591 98.7 267.671 106.82 254.371 106.82C244.991 106.82 237.151 103.18 230.571 95.9C224.131 88.48 220.911 79.8 220.911 69.58C220.911 59.36 224.131 50.82 230.431 43.82C236.871 36.68 244.851 33.18 254.231 33.18C261.511 33.18 267.811 35.42 273.271 39.9C278.731 44.38 281.951 50.12 283.211 57.26L235.751 66.92C236.731 75.18 239.531 82.04 244.011 87.64C248.491 93.1 254.511 95.9 262.211 95.9ZM248.771 35.98C245.831 35.98 243.171 37.38 241.071 40.18C236.731 45.78 235.331 53.2 235.331 60.06C235.331 61.88 235.331 63.42 235.471 64.4L258.991 59.36C262.771 58.38 264.591 56.28 264.591 53.06C264.591 49 263.051 45.22 259.831 41.58C256.611 37.8 252.971 35.98 248.771 35.98ZM318.908 106.82C314.008 106.82 308.548 105.56 305.748 104.86C302.948 103.88 298.888 104.3 294.408 106.68L288.388 78.96H290.628C293.008 85.54 296.648 91.56 301.548 96.74C306.588 101.92 312.328 104.58 318.908 104.58C326.188 104.58 331.648 99.68 331.648 91.42C331.648 84.84 325.068 80.5 317.088 77.28C305.608 72.94 290.068 67.48 290.348 51.94C290.348 46.34 292.448 41.86 296.788 38.36C301.128 34.86 306.308 33.18 312.468 33.18C314.708 33.18 317.368 33.6 320.308 34.58C326.468 36.26 330.668 36.68 335.568 33.18L340.608 58.24H338.368C336.128 52.22 332.488 46.9 327.308 42.28C322.128 37.66 317.088 35.42 311.908 35.42C305.048 35.42 299.588 38.78 300.148 46.2C300.568 51.8 307.568 55.72 315.968 58.94C328.288 63.42 344.248 70.14 343.968 86.66C343.968 92.68 341.588 97.44 336.688 101.22C331.788 105 325.908 106.82 318.908 106.82ZM424.033 33.18C433.413 33.18 440.973 36.68 446.433 43.82C452.033 50.96 454.833 59.64 454.833 70.14C454.833 80.08 451.893 88.76 445.873 96.04C439.853 103.18 432.433 106.82 423.473 106.82C416.753 106.82 410.593 104.3 404.853 99.12V122.5C404.853 130.2 408.353 133.56 412.833 133.98V135.8H382.033V134.12C385.953 133.56 389.593 129.64 389.593 122.5V50.12C389.593 42.84 385.533 39.62 381.753 39.76V37.8L405.273 32.62L402.893 48.86C407.093 38.36 414.093 33.18 424.033 33.18ZM421.653 104.16C433.273 104.16 438.873 92.54 438.873 73.36C438.873 67.9 438.313 62.58 437.053 57.54C435.933 52.36 433.833 47.88 430.753 43.96C427.673 39.9 423.893 37.94 419.553 37.94C413.813 37.94 408.073 41.72 404.853 49.42V89.74C408.633 99.4 414.233 104.16 421.653 104.16ZM480.597 106.82C469.257 106.82 461.137 101.5 461.137 89.88C461.137 86.94 461.977 84.14 463.657 81.62C467.017 76.58 470.937 73.92 478.217 71.12C481.857 69.72 484.937 68.74 487.317 68.04C489.697 67.34 492.777 66.64 496.417 65.94L503.417 64.26V55.86C503.417 41.86 497.397 35.56 488.997 35.56C482.417 35.56 478.637 39.9 478.637 44.94C478.637 47.74 480.597 51.8 480.597 54.74C480.597 58.66 477.097 61.46 472.197 61.46C467.577 61.46 464.777 57.68 464.777 52.64C464.777 47.46 467.297 42.98 472.477 39.06C477.657 35.14 483.397 33.18 489.837 33.18C509.857 33.18 518.397 42.84 518.397 64.12V88.62C518.397 98.28 521.617 101.08 527.917 97.3V99.26C525.537 103.32 519.937 106.82 515.317 106.82C507.477 106.82 503.837 101.36 503.417 93.1C499.077 102.06 489.557 106.82 480.597 106.82ZM503.417 84.56V66.36C502.577 66.78 500.617 67.48 497.397 68.74L490.957 71.12C489.837 71.54 488.157 72.52 485.777 73.78C483.397 75.04 481.857 76.16 480.877 77.28C479.057 79.38 476.957 83.02 476.957 86.94C476.957 95.2 481.437 99.68 488.297 99.68C491.797 99.68 495.157 98.28 498.377 95.62C501.737 92.96 503.417 89.18 503.417 84.56ZM573.078 33.18C578.818 33.18 583.018 36.82 583.018 42.28C583.018 47.18 579.658 50.4 575.318 50.4C568.878 50.4 568.738 41.86 564.398 41.86C561.458 41.86 557.398 46.34 554.598 52.92V91.42C554.598 98.7 557.258 102.62 562.578 103.18V105H531.498V103.32C535.558 102.76 539.338 98.7 539.338 91.42V49.84C539.338 42.56 535.558 39.76 531.498 39.62V37.66L554.738 32.48L552.498 51.94L552.638 51.8C557.398 39.34 564.258 33.18 573.078 33.18ZM629.93 32.34L629.09 37.94H610.05V84.56C610.05 93.66 613.41 98.98 617.33 99.68C621.39 100.38 625.31 99.4 627.55 97.58V99.54C626.15 101.36 620.41 106.68 610.61 106.68C601.51 106.68 594.79 99.82 594.79 85.96V37.94H583.73V35C589.33 34.02 594.37 30.94 598.85 25.9C603.47 20.86 606.41 15.54 607.95 10.08H610.05V35H611.59C618.03 35 624.19 34.16 629.93 32.34ZM648.476 22.4C643.436 22.4 639.236 18.2 639.236 13.16C639.236 7.98 643.436 3.63999 648.476 3.63999C653.656 3.63999 657.996 7.98 657.996 13.16C657.996 18.2 653.656 22.4 648.476 22.4ZM664.016 105H633.496V103.18C637.416 102.62 641.196 98.98 641.196 91.14V50.68C641.196 42.7 637.416 39.62 633.496 39.48V37.52L656.596 32.48V91.14C656.596 98.98 659.956 102.62 664.016 103.18V105ZM709.714 95.9C717.414 95.9 725.674 91.56 730.014 83.02V86.8C726.094 98.7 715.174 106.82 701.874 106.82C692.494 106.82 684.654 103.18 678.074 95.9C671.634 88.48 668.414 79.8 668.414 69.58C668.414 59.36 671.634 50.82 677.934 43.82C684.374 36.68 692.354 33.18 701.734 33.18C709.014 33.18 715.314 35.42 720.774 39.9C726.234 44.38 729.454 50.12 730.714 57.26L683.254 66.92C684.234 75.18 687.034 82.04 691.514 87.64C695.994 93.1 702.014 95.9 709.714 95.9ZM696.274 35.98C693.334 35.98 690.674 37.38 688.574 40.18C684.234 45.78 682.834 53.2 682.834 60.06C682.834 61.88 682.834 63.42 682.974 64.4L706.494 59.36C710.274 58.38 712.094 56.28 712.094 53.06C712.094 49 710.554 45.22 707.334 41.58C704.114 37.8 700.474 35.98 696.274 35.98ZM66.02 118.32V211C66.02 218.98 69.8 222.48 73.86 223.04V225H51.04L52.72 213.38C47.12 222.34 39.98 226.82 31.3 226.82C22.2 226.82 14.78 223.32 9.18 216.32C3.72 209.32 0.92 200.64 0.92 190.14C0.92 179.92 3.86 171.24 9.74 164.1C15.76 156.82 23.04 153.18 31.86 153.18C39.28 153.18 45.58 155.84 50.76 161.3V135.82C50.76 128.4 46.84 124.76 42.92 125.32V123.36L66.02 118.32ZM36.06 221.78C42.08 221.78 46.98 218.42 50.76 211.7V170.82C46.98 161.86 40.54 155.84 32.14 155.84C26.54 155.84 22.48 158.64 19.96 164.1C17.58 169.56 16.32 176.42 16.32 184.82C16.32 195.46 18 204.28 21.36 211.28C24.86 218.28 29.76 221.78 36.06 221.78ZM80.7244 162.98V160.88C90.3844 155.7 96.9644 146.04 97.5244 137.5H96.8244C95.8444 140.72 93.7444 142.26 90.3844 142.26C86.4644 142.26 82.1244 138.2 82.1244 132.18C82.1244 126.58 86.3244 122.38 91.9244 122.38C98.7844 122.38 102.424 127.56 102.424 134.28C102.424 143.94 96.4044 155.14 80.7244 162.98ZM138.03 226.82C124.59 226.82 117.87 217.3 117.87 198.26V170.54C117.87 162.56 114.23 159.06 109.89 159.48V157.52L133.13 152.48V198.26C133.13 211.14 138.03 218.56 146.99 218.56C150.63 218.56 153.71 216.74 156.37 213.24C159.03 209.74 160.43 205.96 160.85 202.18V170.54C160.85 162.14 157.35 159.06 153.01 159.48V157.52L176.11 152.48V210.16C176.11 218.28 178.63 222.62 183.81 223.18V225H160.71L162.11 207.92C160.29 213.1 157.21 217.58 152.87 221.36C148.53 225 143.49 226.82 138.03 226.82ZM255.351 180.62V211.42C255.351 218.56 259.271 222.62 263.331 223.18V225H232.251V223.18C236.171 222.62 240.091 218.56 240.091 211.42V182.16C240.091 164.38 235.751 158.22 227.491 158.22C221.891 158.22 216.291 162.7 212.511 171.1V211.42C212.511 218.7 215.171 222.62 220.491 223.18V225H189.411V223.32C193.471 222.76 197.251 218.7 197.251 211.42V169.84C197.251 162.56 193.471 159.76 189.411 159.62V157.66L212.651 152.48L210.411 171.38C215.031 159.76 223.291 153.18 232.811 153.18C247.511 153.18 255.351 163.12 255.351 180.62Z" fill="#7ECAA7"/>
<path d="M410.44 180.62V211.42C410.44 218.56 414.36 222.62 418.42 223.18V225H387.34V223.18C391.26 222.62 395.18 218.56 395.18 211.42V182.16C395.18 164.38 390.84 158.22 382.58 158.22C376.98 158.22 371.52 162.56 367.74 170.82V211.42C367.74 218.56 371.66 222.62 375.72 223.18V225H344.64V223.18C348.56 222.62 352.48 218.56 352.48 211.42V182.16C352.48 164.38 348.14 158.22 339.88 158.22C334.28 158.22 328.68 162.7 324.9 171.1V211.42C324.9 218.7 327.56 222.62 332.88 223.18V225H301.8V223.32C305.86 222.76 309.64 218.7 309.64 211.42V169.84C309.64 162.56 305.86 159.76 301.8 159.62V157.66L325.04 152.48L322.8 171.38C327.42 159.76 335.68 153.18 345.2 153.18C356.4 153.18 363.4 158.5 366.34 169.28C371.24 158.5 378.38 153.18 387.76 153.18C402.46 153.18 410.44 163.12 410.44 180.62ZM457.997 226.82C448.197 226.82 439.797 223.18 432.937 216.04C426.077 208.76 422.577 200.08 422.577 190C422.577 179.92 426.077 171.24 432.937 164.1C439.797 156.82 448.197 153.18 457.997 153.18C467.657 153.18 476.057 156.82 482.917 164.1C489.917 171.24 493.417 179.92 493.417 190C493.417 200.08 489.917 208.76 482.917 216.04C476.057 223.18 467.657 226.82 457.997 226.82ZM477.317 198.82C477.317 186.64 473.257 172.64 465.417 163.26C461.637 158.5 457.437 156.12 453.097 156.12C444.277 156.12 438.537 166.34 438.537 180.76C438.537 186.78 439.517 193.22 441.477 199.8C443.577 206.38 446.517 212.12 450.297 216.88C454.077 221.64 458.277 224.02 462.617 224.02C471.437 224.02 477.317 213.38 477.317 198.82ZM526.394 226.82C512.954 226.82 506.234 217.3 506.234 198.26V170.54C506.234 162.56 502.594 159.06 498.254 159.48V157.52L521.494 152.48V198.26C521.494 211.14 526.394 218.56 535.354 218.56C538.994 218.56 542.074 216.74 544.734 213.24C547.394 209.74 548.794 205.96 549.214 202.18V170.54C549.214 162.14 545.714 159.06 541.374 159.48V157.52L564.474 152.48V210.16C564.474 218.28 566.994 222.62 572.174 223.18V225H549.074L550.474 207.92C548.654 213.1 545.574 217.58 541.234 221.36C536.894 225 531.854 226.82 526.394 226.82ZM621.66 156.68V155H645.88V156.82C640.14 157.66 635.38 162.42 631.6 171.24C629.5 175.86 626.56 183.14 622.78 192.94L619.56 200.92L618.3 204.14C617.18 207.08 617.18 207.78 616.2 210.16C614.66 214.64 614.66 218.28 615.08 221.92C610.18 222.9 606.12 224.58 602.76 227.24C598.84 214.5 594.78 202.6 588.2 185.8L583.3 173.06C579.8 163.26 575.6 157.8 570.84 156.82V155H602.76V156.82C596.6 157.52 595.34 161.86 599.12 173.48C600.1 176.42 602.48 183 606.12 192.94C609.76 202.88 612 209.32 612.98 212.54C613.96 209.18 616.48 202.46 620.54 192.24C625.16 180.48 627.68 173.34 628.38 170.68C630.48 162.28 628.24 157.66 621.66 156.68ZM682.84 215.9C690.54 215.9 698.8 211.56 703.14 203.02V206.8C699.22 218.7 688.3 226.82 675 226.82C665.62 226.82 657.78 223.18 651.2 215.9C644.76 208.48 641.54 199.8 641.54 189.58C641.54 179.36 644.76 170.82 651.06 163.82C657.5 156.68 665.48 153.18 674.86 153.18C682.14 153.18 688.44 155.42 693.9 159.9C699.36 164.38 702.58 170.12 703.84 177.26L656.38 186.92C657.36 195.18 660.16 202.04 664.64 207.64C669.12 213.1 675.14 215.9 682.84 215.9ZM669.4 155.98C666.46 155.98 663.8 157.38 661.7 160.18C657.36 165.78 655.96 173.2 655.96 180.06C655.96 181.88 655.96 183.42 656.1 184.4L679.62 179.36C683.4 178.38 685.22 176.28 685.22 173.06C685.22 169 683.68 165.22 680.46 161.58C677.24 157.8 673.6 155.98 669.4 155.98ZM816.85 180.62V211.42C816.85 218.56 820.77 222.62 824.83 223.18V225H793.75V223.18C797.67 222.62 801.59 218.56 801.59 211.42V182.16C801.59 164.38 797.25 158.22 788.99 158.22C783.39 158.22 777.93 162.56 774.15 170.82V211.42C774.15 218.56 778.07 222.62 782.13 223.18V225H751.05V223.18C754.97 222.62 758.89 218.56 758.89 211.42V182.16C758.89 164.38 754.55 158.22 746.29 158.22C740.69 158.22 735.09 162.7 731.31 171.1V211.42C731.31 218.7 733.97 222.62 739.29 223.18V225H708.21V223.32C712.27 222.76 716.05 218.7 716.05 211.42V169.84C716.05 162.56 712.27 159.76 708.21 159.62V157.66L731.45 152.48L729.21 171.38C733.83 159.76 742.09 153.18 751.61 153.18C762.81 153.18 769.81 158.5 772.75 169.28C777.65 158.5 784.79 153.18 794.17 153.18C808.87 153.18 816.85 163.12 816.85 180.62ZM870.287 215.9C877.987 215.9 886.247 211.56 890.587 203.02V206.8C886.667 218.7 875.747 226.82 862.447 226.82C853.067 226.82 845.227 223.18 838.647 215.9C832.207 208.48 828.987 199.8 828.987 189.58C828.987 179.36 832.207 170.82 838.507 163.82C844.947 156.68 852.927 153.18 862.307 153.18C869.587 153.18 875.887 155.42 881.347 159.9C886.807 164.38 890.027 170.12 891.287 177.26L843.827 186.92C844.807 195.18 847.607 202.04 852.087 207.64C856.567 213.1 862.587 215.9 870.287 215.9ZM856.847 155.98C853.907 155.98 851.247 157.38 849.147 160.18C844.807 165.78 843.407 173.2 843.407 180.06C843.407 181.88 843.407 183.42 843.547 184.4L867.067 179.36C870.847 178.38 872.667 176.28 872.667 173.06C872.667 169 871.127 165.22 867.907 161.58C864.687 157.8 861.047 155.98 856.847 155.98ZM961.597 180.62V211.42C961.597 218.56 965.517 222.62 969.577 223.18V225H938.497V223.18C942.417 222.62 946.337 218.56 946.337 211.42V182.16C946.337 164.38 941.997 158.22 933.737 158.22C928.137 158.22 922.537 162.7 918.757 171.1V211.42C918.757 218.7 921.417 222.62 926.737 223.18V225H895.657V223.32C899.717 222.76 903.497 218.7 903.497 211.42V169.84C903.497 162.56 899.717 159.76 895.657 159.62V157.66L918.897 152.48L916.657 171.38C921.277 159.76 929.537 153.18 939.057 153.18C953.757 153.18 961.597 163.12 961.597 180.62ZM1017.33 152.34L1016.49 157.94H997.451V204.56C997.451 213.66 1000.81 218.98 1004.73 219.68C1008.79 220.38 1012.71 219.4 1014.95 217.58V219.54C1013.55 221.36 1007.81 226.68 998.011 226.68C988.911 226.68 982.191 219.82 982.191 205.96V157.94H971.131V155C976.731 154.02 981.771 150.94 986.251 145.9C990.871 140.86 993.811 135.54 995.351 130.08H997.451V155H998.991C1005.43 155 1011.59 154.16 1017.33 152.34ZM34.1 346.82C24.72 346.82 16.88 343.18 10.44 335.9C4.14 328.48 0.92 319.8 0.92 309.58C0.92 299.92 4.14 291.38 10.44 284.1C16.88 276.82 24.44 273.18 33.12 273.18C40.82 273.18 47.4 275.28 52.58 279.34C57.9 283.4 60.56 288.16 60.56 293.48C60.56 299.64 56.78 304.12 52.44 304.12C48.38 304.12 44.6 300.9 44.6 296.28C44.6 293.34 47.68 289.14 47.68 286.2C47.54 281.16 42.08 275.56 33.12 275.56C21.92 275.56 14.78 285.64 14.78 300.34C14.78 311.26 17.3 319.94 22.34 326.24C27.38 332.54 33.96 335.76 42.08 335.76C49.36 335.76 57.62 331.98 62.24 322.6V326.1C57.76 339.4 46.56 346.82 34.1 346.82ZM82.2961 262.4C77.2561 262.4 73.0561 258.2 73.0561 253.16C73.0561 247.98 77.2561 243.64 82.2961 243.64C87.4761 243.64 91.8161 247.98 91.8161 253.16C91.8161 258.2 87.4761 262.4 82.2961 262.4ZM97.8361 345H67.3161V343.18C71.2361 342.62 75.0161 338.98 75.0161 331.14V290.68C75.0161 282.7 71.2361 279.62 67.3161 279.48V277.52L90.4161 272.48V331.14C90.4161 338.98 93.7761 342.62 97.8361 343.18V345ZM146.334 272.34L145.494 277.94H126.454V324.56C126.454 333.66 129.814 338.98 133.734 339.68C137.794 340.38 141.714 339.4 143.954 337.58V339.54C142.554 341.36 136.814 346.68 127.014 346.68C117.914 346.68 111.194 339.82 111.194 325.96V277.94H100.134V275C105.734 274.02 110.774 270.94 115.254 265.9C119.874 260.86 122.814 255.54 124.354 250.08H126.454V275H127.994C134.434 275 140.594 274.16 146.334 272.34ZM182.569 346.82C172.769 346.82 164.369 343.18 157.509 336.04C150.649 328.76 147.149 320.08 147.149 310C147.149 299.92 150.649 291.24 157.509 284.1C164.369 276.82 172.769 273.18 182.569 273.18C192.229 273.18 200.629 276.82 207.489 284.1C214.489 291.24 217.989 299.92 217.989 310C217.989 320.08 214.489 328.76 207.489 336.04C200.629 343.18 192.229 346.82 182.569 346.82ZM201.889 318.82C201.889 306.64 197.829 292.64 189.989 283.26C186.209 278.5 182.009 276.12 177.669 276.12C168.849 276.12 163.109 286.34 163.109 300.76C163.109 306.78 164.089 313.22 166.049 319.8C168.149 326.38 171.089 332.12 174.869 336.88C178.649 341.64 182.849 344.02 187.189 344.02C196.009 344.02 201.889 333.38 201.889 318.82ZM270.005 276.96V275H292.965V276.82C291.565 277.1 290.305 277.52 289.325 278.08C287.225 279.06 283.025 283.82 279.805 291.8C274.345 305.66 268.605 322.04 262.585 340.8L260.345 347.94C259.365 351.16 258.525 353.26 258.105 354.52C257.685 355.78 257.125 357.74 256.145 360.12C255.305 362.64 254.605 364.32 254.045 365.3C252.925 367.4 250.825 371.74 249.145 373C246.485 375.24 242.565 377.76 237.665 377.34C228.145 377.34 221.005 370.2 220.865 361.8C220.865 356.06 224.505 352.28 229.965 352.28C233.885 352.28 237.385 354.38 237.385 358.86C237.385 362.08 234.165 365.44 234.165 367.12C234.165 371.46 236.685 373.56 241.585 373.56C245.505 373.56 248.725 371.04 251.105 366C254.325 360.26 254.605 353.96 251.945 346.96L231.785 293.62C227.165 281.3 223.665 277.24 219.325 276.82V275H251.105V276.82C247.325 277.24 245.365 279.48 245.365 283.54C245.365 286.48 246.485 290.96 248.585 296.7L252.365 307.06C256.705 318.26 260.205 328.06 262.025 334.22C266.085 321.48 269.865 310.28 273.505 300.48C276.165 293.2 277.425 288.02 277.425 284.94C277.425 279.48 274.485 276.96 270.005 276.96ZM330.779 335.9C338.479 335.9 346.739 331.56 351.079 323.02V326.8C347.159 338.7 336.239 346.82 322.939 346.82C313.559 346.82 305.719 343.18 299.139 335.9C292.699 328.48 289.479 319.8 289.479 309.58C289.479 299.36 292.699 290.82 298.999 283.82C305.439 276.68 313.419 273.18 322.799 273.18C330.079 273.18 336.379 275.42 341.839 279.9C347.299 284.38 350.519 290.12 351.779 297.26L304.319 306.92C305.299 315.18 308.099 322.04 312.579 327.64C317.059 333.1 323.079 335.9 330.779 335.9ZM317.339 275.98C314.399 275.98 311.739 277.38 309.639 280.18C305.299 285.78 303.899 293.2 303.899 300.06C303.899 301.88 303.899 303.42 304.039 304.4L327.559 299.36C331.339 298.38 333.159 296.28 333.159 293.06C333.159 289 331.619 285.22 328.399 281.58C325.179 277.8 321.539 275.98 317.339 275.98ZM422.088 300.62V331.42C422.088 338.56 426.008 342.62 430.068 343.18V345H398.988V343.18C402.908 342.62 406.828 338.56 406.828 331.42V302.16C406.828 284.38 402.488 278.22 394.228 278.22C388.628 278.22 383.028 282.7 379.248 291.1V331.42C379.248 338.7 381.908 342.62 387.228 343.18V345H356.148V343.32C360.208 342.76 363.988 338.7 363.988 331.42V289.84C363.988 282.56 360.208 279.76 356.148 279.62V277.66L379.388 272.48L377.148 291.38C381.768 279.76 390.028 273.18 399.548 273.18C414.248 273.18 422.088 283.12 422.088 300.62ZM534.476 300.62V331.42C534.476 338.56 538.396 342.62 542.456 343.18V345H511.376V343.18C515.296 342.62 519.216 338.56 519.216 331.42V302.16C519.216 284.38 514.876 278.22 506.616 278.22C501.016 278.22 495.416 282.7 491.636 291.1V331.42C491.636 338.7 494.296 342.62 499.616 343.18V345H468.536V343.32C472.596 342.76 476.376 338.7 476.376 331.42V289.84C476.376 282.56 472.596 279.76 468.536 279.62V277.66L491.776 272.48L489.536 291.38C494.156 279.76 502.416 273.18 511.936 273.18C526.636 273.18 534.476 283.12 534.476 300.62ZM582.077 346.82C572.277 346.82 563.877 343.18 557.017 336.04C550.157 328.76 546.657 320.08 546.657 310C546.657 299.92 550.157 291.24 557.017 284.1C563.877 276.82 572.277 273.18 582.077 273.18C591.737 273.18 600.137 276.82 606.997 284.1C613.997 291.24 617.497 299.92 617.497 310C617.497 320.08 613.997 328.76 606.997 336.04C600.137 343.18 591.737 346.82 582.077 346.82ZM601.397 318.82C601.397 306.64 597.337 292.64 589.497 283.26C585.717 278.5 581.517 276.12 577.177 276.12C568.357 276.12 562.617 286.34 562.617 300.76C562.617 306.78 563.597 313.22 565.557 319.8C567.657 326.38 570.597 332.12 574.377 336.88C578.157 341.64 582.357 344.02 586.697 344.02C595.517 344.02 601.397 333.38 601.397 318.82ZM688.974 300.62V331.42C688.974 338.56 692.894 342.62 696.954 343.18V345H665.874V343.18C669.794 342.62 673.714 338.56 673.714 331.42V302.16C673.714 284.38 669.374 278.22 661.114 278.22C655.514 278.22 649.914 282.7 646.134 291.1V331.42C646.134 338.7 648.794 342.62 654.114 343.18V345H623.034V343.32C627.094 342.76 630.874 338.7 630.874 331.42V289.84C630.874 282.56 627.094 279.76 623.034 279.62V277.66L646.274 272.48L644.034 291.38C648.654 279.76 656.914 273.18 666.434 273.18C681.134 273.18 688.974 283.12 688.974 300.62ZM776.302 273.18C785.682 273.18 793.242 276.68 798.702 283.82C804.302 290.96 807.102 299.64 807.102 310.14C807.102 320.08 804.162 328.76 798.142 336.04C792.122 343.18 784.702 346.82 775.742 346.82C769.022 346.82 762.862 344.3 757.122 339.12V362.5C757.122 370.2 760.622 373.56 765.102 373.98V375.8H734.302V374.12C738.222 373.56 741.862 369.64 741.862 362.5V290.12C741.862 282.84 737.802 279.62 734.022 279.76V277.8L757.542 272.62L755.162 288.86C759.362 278.36 766.362 273.18 776.302 273.18ZM773.922 344.16C785.542 344.16 791.142 332.54 791.142 313.36C791.142 307.9 790.582 302.58 789.322 297.54C788.202 292.36 786.102 287.88 783.022 283.96C779.942 279.9 776.162 277.94 771.822 277.94C766.082 277.94 760.342 281.72 757.122 289.42V329.74C760.902 339.4 766.502 344.16 773.922 344.16ZM832.867 346.82C821.527 346.82 813.407 341.5 813.407 329.88C813.407 326.94 814.247 324.14 815.927 321.62C819.287 316.58 823.207 313.92 830.487 311.12C834.127 309.72 837.207 308.74 839.587 308.04C841.967 307.34 845.047 306.64 848.687 305.94L855.687 304.26V295.86C855.687 281.86 849.667 275.56 841.267 275.56C834.687 275.56 830.907 279.9 830.907 284.94C830.907 287.74 832.867 291.8 832.867 294.74C832.867 298.66 829.367 301.46 824.467 301.46C819.847 301.46 817.047 297.68 817.047 292.64C817.047 287.46 819.567 282.98 824.747 279.06C829.927 275.14 835.667 273.18 842.107 273.18C862.127 273.18 870.667 282.84 870.667 304.12V328.62C870.667 338.28 873.887 341.08 880.187 337.3V339.26C877.807 343.32 872.207 346.82 867.587 346.82C859.747 346.82 856.107 341.36 855.687 333.1C851.347 342.06 841.827 346.82 832.867 346.82ZM855.687 324.56V306.36C854.847 306.78 852.887 307.48 849.667 308.74L843.227 311.12C842.107 311.54 840.427 312.52 838.047 313.78C835.667 315.04 834.127 316.16 833.147 317.28C831.327 319.38 829.227 323.02 829.227 326.94C829.227 335.2 833.707 339.68 840.567 339.68C844.067 339.68 847.427 338.28 850.647 335.62C854.007 332.96 855.687 329.18 855.687 324.56ZM925.348 273.18C931.088 273.18 935.288 276.82 935.288 282.28C935.288 287.18 931.928 290.4 927.588 290.4C921.148 290.4 921.008 281.86 916.668 281.86C913.728 281.86 909.668 286.34 906.868 292.92V331.42C906.868 338.7 909.528 342.62 914.848 343.18V345H883.768V343.32C887.828 342.76 891.608 338.7 891.608 331.42V289.84C891.608 282.56 887.828 279.76 883.768 279.62V277.66L907.008 272.48L904.768 291.94L904.908 291.8C909.668 279.34 916.528 273.18 925.348 273.18ZM982.2 272.34L981.36 277.94H962.32V324.56C962.32 333.66 965.68 338.98 969.6 339.68C973.66 340.38 977.58 339.4 979.82 337.58V339.54C978.42 341.36 972.68 346.68 962.88 346.68C953.78 346.68 947.06 339.82 947.06 325.96V277.94H936V275C941.6 274.02 946.64 270.94 951.12 265.9C955.74 260.86 958.68 255.54 960.22 250.08H962.32V275H963.86C970.3 275 976.46 274.16 982.2 272.34ZM1000.75 262.4C995.705 262.4 991.505 258.2 991.505 253.16C991.505 247.98 995.705 243.64 1000.75 243.64C1005.93 243.64 1010.27 247.98 1010.27 253.16C1010.27 258.2 1005.93 262.4 1000.75 262.4ZM1016.29 345H985.765V343.18C989.685 342.62 993.465 338.98 993.465 331.14V290.68C993.465 282.7 989.685 279.62 985.765 279.48V277.52L1008.87 272.48V331.14C1008.87 338.98 1012.23 342.62 1016.29 343.18V345ZM1051.34 346.82C1046.44 346.82 1040.98 345.56 1038.18 344.86C1035.38 343.88 1031.32 344.3 1026.84 346.68L1020.82 318.96H1023.06C1025.44 325.54 1029.08 331.56 1033.98 336.74C1039.02 341.92 1044.76 344.58 1051.34 344.58C1058.62 344.58 1064.08 339.68 1064.08 331.42C1064.08 324.84 1057.5 320.5 1049.52 317.28C1038.04 312.94 1022.5 307.48 1022.78 291.94C1022.78 286.34 1024.88 281.86 1029.22 278.36C1033.56 274.86 1038.74 273.18 1044.9 273.18C1047.14 273.18 1049.8 273.6 1052.74 274.58C1058.9 276.26 1063.1 276.68 1068 273.18L1073.04 298.24H1070.8C1068.56 292.22 1064.92 286.9 1059.74 282.28C1054.56 277.66 1049.52 275.42 1044.34 275.42C1037.48 275.42 1032.02 278.78 1032.58 286.2C1033 291.8 1040 295.72 1048.4 298.94C1060.72 303.42 1076.68 310.14 1076.4 326.66C1076.4 332.68 1074.02 337.44 1069.12 341.22C1064.22 345 1058.34 346.82 1051.34 346.82ZM1100.78 346.82C1089.44 346.82 1081.32 341.5 1081.32 329.88C1081.32 326.94 1082.16 324.14 1083.84 321.62C1087.2 316.58 1091.12 313.92 1098.4 311.12C1102.04 309.72 1105.12 308.74 1107.5 308.04C1109.88 307.34 1112.96 306.64 1116.6 305.94L1123.6 304.26V295.86C1123.6 281.86 1117.58 275.56 1109.18 275.56C1102.6 275.56 1098.82 279.9 1098.82 284.94C1098.82 287.74 1100.78 291.8 1100.78 294.74C1100.78 298.66 1097.28 301.46 1092.38 301.46C1087.76 301.46 1084.96 297.68 1084.96 292.64C1084.96 287.46 1087.48 282.98 1092.66 279.06C1097.84 275.14 1103.58 273.18 1110.02 273.18C1130.04 273.18 1138.58 282.84 1138.58 304.12V328.62C1138.58 338.28 1141.8 341.08 1148.1 337.3V339.26C1145.72 343.32 1140.12 346.82 1135.5 346.82C1127.66 346.82 1124.02 341.36 1123.6 333.1C1119.26 342.06 1109.74 346.82 1100.78 346.82ZM1123.6 324.56V306.36C1122.76 306.78 1120.8 307.48 1117.58 308.74L1111.14 311.12C1110.02 311.54 1108.34 312.52 1105.96 313.78C1103.58 315.04 1102.04 316.16 1101.06 317.28C1099.24 319.38 1097.14 323.02 1097.14 326.94C1097.14 335.2 1101.62 339.68 1108.48 339.68C1111.98 339.68 1115.34 338.28 1118.56 335.62C1121.92 332.96 1123.6 329.18 1123.6 324.56ZM1217.62 300.62V331.42C1217.62 338.56 1221.54 342.62 1225.6 343.18V345H1194.52V343.18C1198.44 342.62 1202.36 338.56 1202.36 331.42V302.16C1202.36 284.38 1198.02 278.22 1189.76 278.22C1184.16 278.22 1178.56 282.7 1174.78 291.1V331.42C1174.78 338.7 1177.44 342.62 1182.76 343.18V345H1151.68V343.32C1155.74 342.76 1159.52 338.7 1159.52 331.42V289.84C1159.52 282.56 1155.74 279.76 1151.68 279.62V277.66L1174.92 272.48L1172.68 291.38C1177.3 279.76 1185.56 273.18 1195.08 273.18C1209.78 273.18 1217.62 283.12 1217.62 300.62ZM1231.62 336.88C1231.62 331.42 1235.96 327.08 1241.42 327.08C1246.88 327.08 1251.22 331.42 1251.22 336.88C1251.22 342.48 1246.88 346.82 1241.42 346.82C1235.96 346.82 1231.62 342.48 1231.62 336.88Z" fill="#F0FAF0"/>
</svg>
