<svg width="627" height="350" viewBox="0 0 627 350" fill="none" xmlns="http://www.w3.org/2000/svg">
<path d="M103.96 120.02C110.26 120.02 116 118.34 121.32 114.98V116.8C115.02 123.66 105.64 127.16 93.46 127.16C84.5 127.16 74 122.54 67.14 117.92C60.28 113.44 51.88 108.82 46.7 108.82H45.86C18.42 109.24 0.22 84.46 0.78 56.32C0.78 41.9 4.84 29.58 12.96 19.5C21.08 9.42 31.72 4.37999 44.74 4.37999C58.18 4.37999 68.96 9.42 77.22 19.5C85.48 29.44 89.54 41.76 89.54 56.32C89.54 69.62 86.18 81.1 79.46 90.9C72.74 100.56 63.78 106.44 52.72 108.26C58.18 108.4 66.58 110.36 77.92 114.14C89.4 118.06 98.08 120.02 103.96 120.02ZM16.18 42.18C16.18 51.42 17.58 60.8 20.24 70.32C23.04 79.84 27.24 88.1 32.84 94.96C38.44 101.82 44.74 105.32 51.6 105.32C59.02 105.32 64.48 101.96 68.26 95.38C72.04 88.8 74 80.54 74 70.88C74 61.5 72.6 52.12 69.94 42.74C67.28 33.36 63.22 25.1 57.62 18.24C52.16 11.38 45.86 7.88 39 7.88C31.58 7.88 25.84 11.24 21.92 17.82C18.14 24.4 16.18 32.52 16.18 42.18ZM124.014 108.82C110.574 108.82 103.854 99.3 103.854 80.26V52.54C103.854 44.56 100.214 41.06 95.8739 41.48V39.52L119.114 34.48V80.26C119.114 93.14 124.014 100.56 132.974 100.56C136.614 100.56 139.694 98.74 142.354 95.24C145.014 91.74 146.414 87.96 146.834 84.18V52.54C146.834 44.14 143.334 41.06 138.994 41.48V39.52L162.094 34.48V92.16C162.094 100.28 164.614 104.62 169.794 105.18V107H146.694L148.094 89.92C146.274 95.1 143.194 99.58 138.854 103.36C134.514 107 129.474 108.82 124.014 108.82ZM194.155 108.82C182.815 108.82 174.695 103.5 174.695 91.88C174.695 88.94 175.535 86.14 177.215 83.62C180.575 78.58 184.495 75.92 191.775 73.12C195.415 71.72 198.495 70.74 200.875 70.04C203.255 69.34 206.335 68.64 209.975 67.94L216.975 66.26V57.86C216.975 43.86 210.955 37.56 202.555 37.56C195.975 37.56 192.195 41.9 192.195 46.94C192.195 49.74 194.155 53.8 194.155 56.74C194.155 60.66 190.655 63.46 185.755 63.46C181.135 63.46 178.335 59.68 178.335 54.64C178.335 49.46 180.855 44.98 186.035 41.06C191.215 37.14 196.955 35.18 203.395 35.18C223.415 35.18 231.955 44.84 231.955 66.12V90.62C231.955 100.28 235.175 103.08 241.475 99.3V101.26C239.095 105.32 233.495 108.82 228.875 108.82C221.035 108.82 217.395 103.36 216.975 95.1C212.635 104.06 203.115 108.82 194.155 108.82ZM216.975 86.56V68.36C216.135 68.78 214.175 69.48 210.955 70.74L204.515 73.12C203.395 73.54 201.715 74.52 199.335 75.78C196.955 77.04 195.415 78.16 194.435 79.28C192.615 81.38 190.515 85.02 190.515 88.94C190.515 97.2 194.995 101.68 201.855 101.68C205.355 101.68 208.715 100.28 211.935 97.62C215.295 94.96 216.975 91.18 216.975 86.56ZM310.996 62.62V93.42C310.996 100.56 314.916 104.62 318.976 105.18V107H287.896V105.18C291.816 104.62 295.736 100.56 295.736 93.42V64.16C295.736 46.38 291.396 40.22 283.136 40.22C277.536 40.22 271.936 44.7 268.156 53.1V93.42C268.156 100.7 270.816 104.62 276.136 105.18V107H245.056V105.32C249.116 104.76 252.896 100.7 252.896 93.42V51.84C252.896 44.56 249.116 41.76 245.056 41.62V39.66L268.296 34.48L266.056 53.38C270.676 41.76 278.936 35.18 288.456 35.18C303.156 35.18 310.996 45.12 310.996 62.62ZM388.277 0.319997V93C388.277 100.98 392.057 104.48 396.117 105.04V107H373.297L374.977 95.38C369.377 104.34 362.237 108.82 353.557 108.82C344.457 108.82 337.037 105.32 331.437 98.32C325.977 91.32 323.177 82.64 323.177 72.14C323.177 61.92 326.117 53.24 331.997 46.1C338.017 38.82 345.297 35.18 354.117 35.18C361.537 35.18 367.837 37.84 373.017 43.3V17.82C373.017 10.4 369.097 6.76 365.177 7.32V5.36L388.277 0.319997ZM358.317 103.78C364.337 103.78 369.237 100.42 373.017 93.7V52.82C369.237 43.86 362.797 37.84 354.397 37.84C348.797 37.84 344.737 40.64 342.217 46.1C339.837 51.56 338.577 58.42 338.577 66.82C338.577 77.46 340.257 86.28 343.617 93.28C347.117 100.28 352.017 103.78 358.317 103.78ZM36.34 228.82C26.54 228.82 18.14 225.18 11.28 218.04C4.42 210.76 0.92 202.08 0.92 192C0.92 181.92 4.42 173.24 11.28 166.1C18.14 158.82 26.54 155.18 36.34 155.18C46 155.18 54.4 158.82 61.26 166.1C68.26 173.24 71.76 181.92 71.76 192C71.76 202.08 68.26 210.76 61.26 218.04C54.4 225.18 46 228.82 36.34 228.82ZM55.66 200.82C55.66 188.64 51.6 174.64 43.76 165.26C39.98 160.5 35.78 158.12 31.44 158.12C22.62 158.12 16.88 168.34 16.88 182.76C16.88 188.78 17.86 195.22 19.82 201.8C21.92 208.38 24.86 214.12 28.64 218.88C32.42 223.64 36.62 226.02 40.96 226.02C49.78 226.02 55.66 215.38 55.66 200.82ZM143.237 182.62V213.42C143.237 220.56 147.157 224.62 151.217 225.18V227H120.137V225.18C124.057 224.62 127.977 220.56 127.977 213.42V184.16C127.977 166.38 123.637 160.22 115.377 160.22C109.777 160.22 104.177 164.7 100.397 173.1V213.42C100.397 220.7 103.057 224.62 108.377 225.18V227H77.2966V225.32C81.3566 224.76 85.1366 220.7 85.1366 213.42V171.84C85.1366 164.56 81.3566 161.76 77.2966 161.62V159.66L100.537 154.48L98.2966 173.38C102.917 161.76 111.177 155.18 120.697 155.18C135.397 155.18 143.237 165.12 143.237 182.62ZM254.085 120.32V213C254.085 220.98 257.865 224.48 261.925 225.04V227H239.105L240.785 215.38C235.185 224.34 228.045 228.82 219.365 228.82C210.265 228.82 202.845 225.32 197.245 218.32C191.785 211.32 188.985 202.64 188.985 192.14C188.985 181.92 191.925 173.24 197.805 166.1C203.825 158.82 211.105 155.18 219.925 155.18C227.345 155.18 233.645 157.84 238.825 163.3V137.82C238.825 130.4 234.905 126.76 230.985 127.32V125.36L254.085 120.32ZM224.125 223.78C230.145 223.78 235.045 220.42 238.825 213.7V172.82C235.045 163.86 228.605 157.84 220.205 157.84C214.605 157.84 210.545 160.64 208.025 166.1C205.645 171.56 204.385 178.42 204.385 186.82C204.385 197.46 206.065 206.28 209.425 213.28C212.925 220.28 217.825 223.78 224.125 223.78ZM283.349 144.4C278.309 144.4 274.109 140.2 274.109 135.16C274.109 129.98 278.309 125.64 283.349 125.64C288.529 125.64 292.869 129.98 292.869 135.16C292.869 140.2 288.529 144.4 283.349 144.4ZM298.889 227H268.369V225.18C272.289 224.62 276.069 220.98 276.069 213.14V172.68C276.069 164.7 272.289 161.62 268.369 161.48V159.52L291.469 154.48V213.14C291.469 220.98 294.829 224.62 298.889 225.18V227ZM347.387 154.34L346.547 159.94H327.507V206.56C327.507 215.66 330.867 220.98 334.787 221.68C338.847 222.38 342.767 221.4 345.007 219.58V221.54C343.607 223.36 337.867 228.68 328.067 228.68C318.967 228.68 312.247 221.82 312.247 207.96V159.94H301.187V157C306.787 156.02 311.827 152.94 316.307 147.9C320.927 142.86 323.867 137.54 325.407 132.08H327.507V157H329.047C335.487 157 341.647 156.16 347.387 154.34ZM419.24 228.82C409.44 228.82 401.04 225.18 394.18 218.04C387.32 210.76 383.82 202.08 383.82 192C383.82 181.92 387.32 173.24 394.18 166.1C401.04 158.82 409.44 155.18 419.24 155.18C428.9 155.18 437.3 158.82 444.16 166.1C451.16 173.24 454.66 181.92 454.66 192C454.66 202.08 451.16 210.76 444.16 218.04C437.3 225.18 428.9 228.82 419.24 228.82ZM438.56 200.82C438.56 188.64 434.5 174.64 426.66 165.26C422.88 160.5 418.68 158.12 414.34 158.12C405.52 158.12 399.78 168.34 399.78 182.76C399.78 188.78 400.76 195.22 402.72 201.8C404.82 208.38 407.76 214.12 411.54 218.88C415.32 223.64 419.52 226.02 423.86 226.02C432.68 226.02 438.56 215.38 438.56 200.82ZM487.637 228.82C474.197 228.82 467.477 219.3 467.477 200.26V172.54C467.477 164.56 463.837 161.06 459.497 161.48V159.52L482.737 154.48V200.26C482.737 213.14 487.637 220.56 496.597 220.56C500.237 220.56 503.317 218.74 505.977 215.24C508.637 211.74 510.037 207.96 510.457 204.18V172.54C510.457 164.14 506.957 161.06 502.617 161.48V159.52L525.717 154.48V212.16C525.717 220.28 528.237 224.62 533.417 225.18V227H510.317L511.717 209.92C509.897 215.1 506.817 219.58 502.477 223.36C498.137 227 493.097 228.82 487.637 228.82ZM553.998 144.4C548.958 144.4 544.758 140.2 544.758 135.16C544.758 129.98 548.958 125.64 553.998 125.64C559.178 125.64 563.518 129.98 563.518 135.16C563.518 140.2 559.178 144.4 553.998 144.4ZM569.538 227H539.018V225.18C542.938 224.62 546.718 220.98 546.718 213.14V172.68C546.718 164.7 542.938 161.62 539.018 161.48V159.52L562.118 154.48V213.14C562.118 220.98 565.478 224.62 569.538 225.18V227ZM575.056 249.54V247.58C584.716 242.12 591.296 232.74 591.856 224.2L591.156 224.06C590.176 227.28 588.076 228.82 584.716 228.82C580.796 228.82 576.456 224.9 576.456 218.88C576.456 213.14 580.656 208.94 586.256 208.94C593.116 208.94 596.756 214.12 596.756 220.84C596.756 230.78 590.736 241.7 575.056 249.54ZM36.34 348.82C26.54 348.82 18.14 345.18 11.28 338.04C4.42 330.76 0.92 322.08 0.92 312C0.92 301.92 4.42 293.24 11.28 286.1C18.14 278.82 26.54 275.18 36.34 275.18C46 275.18 54.4 278.82 61.26 286.1C68.26 293.24 71.76 301.92 71.76 312C71.76 322.08 68.26 330.76 61.26 338.04C54.4 345.18 46 348.82 36.34 348.82ZM55.66 320.82C55.66 308.64 51.6 294.64 43.76 285.26C39.98 280.5 35.78 278.12 31.44 278.12C22.62 278.12 16.88 288.34 16.88 302.76C16.88 308.78 17.86 315.22 19.82 321.8C21.92 328.38 24.86 334.12 28.64 338.88C32.42 343.64 36.62 346.02 40.96 346.02C49.78 346.02 55.66 335.38 55.66 320.82ZM143.237 302.62V333.42C143.237 340.56 147.157 344.62 151.217 345.18V347H120.137V345.18C124.057 344.62 127.977 340.56 127.977 333.42V304.16C127.977 286.38 123.637 280.22 115.377 280.22C109.777 280.22 104.177 284.7 100.397 293.1V333.42C100.397 340.7 103.057 344.62 108.377 345.18V347H77.2966V345.32C81.3566 344.76 85.1366 340.7 85.1366 333.42V291.84C85.1366 284.56 81.3566 281.76 77.2966 281.62V279.66L100.537 274.48L98.2966 293.38C102.917 281.76 111.177 275.18 120.697 275.18C135.397 275.18 143.237 285.12 143.237 302.62ZM208.445 348.82C197.105 348.82 188.985 343.5 188.985 331.88C188.985 328.94 189.825 326.14 191.505 323.62C194.865 318.58 198.785 315.92 206.065 313.12C209.705 311.72 212.785 310.74 215.165 310.04C217.545 309.34 220.625 308.64 224.265 307.94L231.265 306.26V297.86C231.265 283.86 225.245 277.56 216.845 277.56C210.265 277.56 206.485 281.9 206.485 286.94C206.485 289.74 208.445 293.8 208.445 296.74C208.445 300.66 204.945 303.46 200.045 303.46C195.425 303.46 192.625 299.68 192.625 294.64C192.625 289.46 195.145 284.98 200.325 281.06C205.505 277.14 211.245 275.18 217.685 275.18C237.705 275.18 246.245 284.84 246.245 306.12V330.62C246.245 340.28 249.465 343.08 255.765 339.3V341.26C253.385 345.32 247.785 348.82 243.165 348.82C235.325 348.82 231.685 343.36 231.265 335.1C226.925 344.06 217.405 348.82 208.445 348.82ZM231.265 326.56V308.36C230.425 308.78 228.465 309.48 225.245 310.74L218.805 313.12C217.685 313.54 216.005 314.52 213.625 315.78C211.245 317.04 209.705 318.16 208.725 319.28C206.905 321.38 204.805 325.02 204.805 328.94C204.805 337.2 209.285 341.68 216.145 341.68C219.645 341.68 223.005 340.28 226.225 337.62C229.585 334.96 231.265 331.18 231.265 326.56ZM302.685 278.68V277H326.905V278.82C321.165 279.66 316.405 284.42 312.625 293.24C310.525 297.86 307.585 305.14 303.805 314.94L300.585 322.92L299.325 326.14C298.205 329.08 298.205 329.78 297.225 332.16C295.685 336.64 295.685 340.28 296.105 343.92C291.205 344.9 287.145 346.58 283.785 349.24C279.865 336.5 275.805 324.6 269.225 307.8L264.325 295.06C260.825 285.26 256.625 279.8 251.865 278.82V277H283.785V278.82C277.625 279.52 276.365 283.86 280.145 295.48C281.125 298.42 283.505 305 287.145 314.94C290.785 324.88 293.025 331.32 294.005 334.54C294.985 331.18 297.505 324.46 301.565 314.24C306.185 302.48 308.705 295.34 309.405 292.68C311.505 284.28 309.265 279.66 302.685 278.68ZM344.349 348.82C333.009 348.82 324.889 343.5 324.889 331.88C324.889 328.94 325.729 326.14 327.409 323.62C330.769 318.58 334.689 315.92 341.969 313.12C345.609 311.72 348.689 310.74 351.069 310.04C353.449 309.34 356.529 308.64 360.169 307.94L367.169 306.26V297.86C367.169 283.86 361.149 277.56 352.749 277.56C346.169 277.56 342.389 281.9 342.389 286.94C342.389 289.74 344.349 293.8 344.349 296.74C344.349 300.66 340.849 303.46 335.949 303.46C331.329 303.46 328.529 299.68 328.529 294.64C328.529 289.46 331.049 284.98 336.229 281.06C341.409 277.14 347.149 275.18 353.589 275.18C373.609 275.18 382.149 284.84 382.149 306.12V330.62C382.149 340.28 385.369 343.08 391.669 339.3V341.26C389.289 345.32 383.689 348.82 379.069 348.82C371.229 348.82 367.589 343.36 367.169 335.1C362.829 344.06 353.309 348.82 344.349 348.82ZM367.169 326.56V308.36C366.329 308.78 364.369 309.48 361.149 310.74L354.709 313.12C353.589 313.54 351.909 314.52 349.529 315.78C347.149 317.04 345.609 318.16 344.629 319.28C342.809 321.38 340.709 325.02 340.709 328.94C340.709 337.2 345.189 341.68 352.049 341.68C355.549 341.68 358.909 340.28 362.129 337.62C365.489 334.96 367.169 331.18 367.169 326.56ZM461.19 302.62V333.42C461.19 340.56 465.11 344.62 469.17 345.18V347H438.09V345.18C442.01 344.62 445.93 340.56 445.93 333.42V304.16C445.93 286.38 441.59 280.22 433.33 280.22C427.73 280.22 422.13 284.7 418.35 293.1V333.42C418.35 340.7 421.01 344.62 426.33 345.18V347H395.25V345.32C399.31 344.76 403.09 340.7 403.09 333.42V291.84C403.09 284.56 399.31 281.76 395.25 281.62V279.66L418.49 274.48L416.25 293.38C420.87 281.76 429.13 275.18 438.65 275.18C453.35 275.18 461.19 285.12 461.19 302.62ZM506.551 348.82C497.171 348.82 489.331 345.18 482.891 337.9C476.591 330.48 473.371 321.8 473.371 311.58C473.371 301.92 476.591 293.38 482.891 286.1C489.331 278.82 496.891 275.18 505.571 275.18C513.271 275.18 519.851 277.28 525.031 281.34C530.351 285.4 533.011 290.16 533.011 295.48C533.011 301.64 529.231 306.12 524.891 306.12C520.831 306.12 517.051 302.9 517.051 298.28C517.051 295.34 520.131 291.14 520.131 288.2C519.991 283.16 514.531 277.56 505.571 277.56C494.371 277.56 487.231 287.64 487.231 302.34C487.231 313.26 489.751 321.94 494.791 328.24C499.831 334.54 506.411 337.76 514.531 337.76C521.811 337.76 530.071 333.98 534.691 324.6V328.1C530.211 341.4 519.011 348.82 506.551 348.82ZM580.367 337.9C588.067 337.9 596.327 333.56 600.667 325.02V328.8C596.747 340.7 585.827 348.82 572.527 348.82C563.147 348.82 555.307 345.18 548.727 337.9C542.287 330.48 539.067 321.8 539.067 311.58C539.067 301.36 542.287 292.82 548.587 285.82C555.027 278.68 563.007 275.18 572.387 275.18C579.667 275.18 585.967 277.42 591.427 281.9C596.887 286.38 600.107 292.12 601.367 299.26L553.907 308.92C554.887 317.18 557.687 324.04 562.167 329.64C566.647 335.1 572.667 337.9 580.367 337.9ZM566.927 277.98C563.987 277.98 561.327 279.38 559.227 282.18C554.887 287.78 553.487 295.2 553.487 302.06C553.487 303.88 553.487 305.42 553.627 306.4L577.147 301.36C580.927 300.38 582.747 298.28 582.747 295.06C582.747 291 581.207 287.22 577.987 283.58C574.767 279.8 571.127 277.98 566.927 277.98ZM606.856 338.88C606.856 333.42 611.196 329.08 616.656 329.08C622.116 329.08 626.456 333.42 626.456 338.88C626.456 344.48 622.116 348.82 616.656 348.82C611.196 348.82 606.856 344.48 606.856 338.88Z" fill="#3C78F0"/>
</svg>
