<?xml version="1.0" encoding="UTF-8" standalone="no"?>
<svg
   width="1199.1121"
   height="172.36978"
   viewBox="0 0 1199.1121 172.36978"
   fill="none"
   version="1.1"
   id="svg2"
   sodipodi:docname="oui-quebec-blanc.svg"
   xml:space="preserve"
   inkscape:version="1.3.2 (091e20ef0f, 2023-11-25, custom)"
   xmlns:inkscape="http://www.inkscape.org/namespaces/inkscape"
   xmlns:sodipodi="http://sodipodi.sourceforge.net/DTD/sodipodi-0.dtd"
   xmlns="http://www.w3.org/2000/svg"
   xmlns:svg="http://www.w3.org/2000/svg"><defs
     id="defs2" /><sodipodi:namedview
     id="namedview2"
     pagecolor="#ffffff"
     bordercolor="#000000"
     borderopacity="0.25"
     inkscape:showpageshadow="2"
     inkscape:pageopacity="0.0"
     inkscape:pagecheckerboard="0"
     inkscape:deskcolor="#d1d1d1"
     inkscape:zoom="0.94236111"
     inkscape:cx="634.04569"
     inkscape:cy="247.78187"
     inkscape:window-width="1920"
     inkscape:window-height="995"
     inkscape:window-x="0"
     inkscape:window-y="0"
     inkscape:window-maximized="1"
     inkscape:current-layer="svg2" /><path
     d="m 224.18549,166.24936 c -6.82657,9.4e-4 -13.07662,-1.08245 -18.75015,-3.25015 -5.66047,-2.33248 -10.57603,-5.58222 -14.74667,-9.74922 -3.99582,-4.33328 -7.16762,-9.49999 -9.50523,-15.50072 -2.16606,-5.99985 -3.24715,-12.75 -3.24339,-20.24946 l -0.006,-67.50071 33.75836,0.001 -0.004,61.24947 c -0.004,7.49946 1.91302,13.333 5.75048,17.49962 3.99897,4.1671 9.16928,6.25095 15.50101,6.25015 6.33159,1.9e-4 11.4111,-2.08417 15.24817,-6.24969 3.99885,-4.16702 6.00016,-10.00026 6.00392,-17.49972 l -0.006,-61.25087 33.74845,-1.2e-4 0.005,115.00088 -25.00321,-7.8e-4 -5.00288,-11.25076 c -2.83232,2.33352 -5.99318,4.4179 -9.49246,6.25174 -3.00114,1.66654 -6.58476,3.1664 -10.75083,4.49957 -4.00128,1.16648 -8.50622,1.74918 -13.50491,1.7495 z m 118.78997,-1.24979 -33.74845,1.2e-4 0.005,-114.99948 33.74844,-1.3e-4 z M 307.97893,18.7497 c -0.004,-5.00024 1.82691,-9.33459 5.50275,-12.99968 C 317.31243,1.91686 321.73218,3.1004006e-4 326.73088,4.0055494e-8 331.72957,-3.1995994e-4 336.06496,1.9167 339.72715,5.74968 c 3.83703,3.6667 5.75253,8.00046 5.74677,12.99931 0.004,5.00024 -1.9093,9.41793 -5.74996,13.2497 -3.66608,3.66747 -7.99338,5.50107 -12.99207,5.50139 -5.00861,-10e-4 -9.4165,-1.83336 -13.25354,-5.50006 -3.67208,-3.83437 -5.50519,-8.25147 -5.49942,-13.25032 z m 223.87022,135.00053 c -3.17543,2.33176 -6.92191,4.41563 -11.25924,6.24883 -3.65777,1.66817 -7.99856,3.16664 -12.9928,4.50055 -5.00114,1.16734 -10.66743,1.75042 -16.99902,1.75023 -10.67381,-5.1e-4 -20.75365,-1.99981 -30.24944,-5.99929 -9.34075,-4.16855 -17.50177,-9.83348 -24.50245,-17.00053 -6.9975,-7.33324 -12.58882,-15.83413 -16.754,-25.50088 -3.99362,-9.66588 -6.00177,-20.16655 -5.99455,-31.49883 -0.006,-11.16749 1.9934,-21.58463 5.99759,-31.25042 4.16913,-9.83347 9.74645,-18.33398 16.7519,-25.49975 6.99872,-7.33333 15.16682,-12.9997 24.49439,-17.00049 9.50242,-4.16707 19.59039,-6.24936 30.25429,-6.25024 10.66377,1.1e-4 20.66121,2.08275 30.00211,6.25031 9.49578,3.99949 17.74731,9.66703 24.74496,16.99927 7.00067,7.16706 12.5012,15.66731 16.50157,25.50075 4.16519,9.66676 6.24582,20.08269 6.25166,31.25019 -6e-4,7.33328 -0.83489,13.91624 -2.50301,19.74985 -1.50317,5.66594 -3.16375,10.58369 -5.0014,14.74948 -2.16381,4.8339 -4.66122,9.1675 -7.50218,12.99941 l 15.00822,15.00174 -20.00195,21.24906 z m -0.006,-67.50071 c 0.005,-6.49962 -1.08085,-12.50008 -3.24648,-18 -2.16564,-5.49992 -5.17372,-10.2508 -9.00444,-14.24985 -3.66893,-4.00056 -8.00202,-7.08361 -12.99913,-9.25016 -4.99395,-2.33272 -10.33343,-3.5002 -15.99864,-3.49964 -5.66507,-4.3e-4 -10.9994,1.16654 -16.00269,3.49891 -5.00027,2.16719 -9.41242,5.25115 -13.24633,9.25049 -3.67241,3.99983 -6.58198,8.75113 -8.74852,14.25114 -2.16653,5.5 -3.25203,11.49931 -3.25665,17.99892 0.005,6.50001 1.09089,12.50048 3.25651,18.0004 2.16564,5.49992 5.08293,10.25016 8.75186,14.25071 3.83072,3.99905 8.24292,7.16593 13.24691,9.49906 4.9971,2.16654 10.32819,3.25003 16.0033,3.25086 4.16063,-9.6e-4 7.74344,-0.41738 10.74861,-1.25025 1.66263,-0.33385 3.0844,-0.75003 4.24533,-1.25033 l -16.24652,-16.25022 20.00196,-21.24906 17.49484,17.49911 c 1.00129,-2.16673 1.8342,-4.50053 2.49859,-7.00039 0.66796,-2.16612 1.25008,-4.58363 1.75598,-7.24916 0.49599,-2.66693 0.7511,-5.41618 0.74551,-8.25054 z m 96.17206,80.00012 c -6.83647,-4.6e-4 -13.08652,-1.08384 -18.75015,-3.25015 -5.67037,-2.33387 -10.58592,-5.58361 -14.74668,-9.74922 -4.00571,-4.33467 -7.16761,-9.49999 -9.50521,-15.50072 -2.16607,-5.99985 -3.24715,-12.75 -3.24339,-20.24946 l -0.006,-67.50072 33.74844,-1.2e-4 0.006,61.25087 c -0.004,7.49946 1.91302,13.33299 5.75048,17.49961 3.99898,4.16711 9.15937,6.24956 15.501,6.25015 6.3316,1.9e-4 11.41112,-2.08416 15.24819,-6.24968 3.99885,-4.16702 6.00016,-10.00026 5.99401,-17.50112 l 0.004,-61.24947 33.74844,-1.2e-4 0.005,115.00088 -25.00321,-7.9e-4 -5.00288,-11.25076 c -2.83234,2.33353 -5.99318,4.41791 -9.50236,6.25036 -2.99124,1.66793 -6.57486,3.16778 -10.74094,4.50095 -4.00129,1.16648 -8.50623,1.74919 -13.50491,1.74951 z m 190.04073,-35.00009 c -1.50404,4.66609 -3.75217,9.166 -6.75447,13.49933 -2.9924,4.33473 -6.74392,8.25073 -11.24491,11.75138 -4.49772,3.33348 -9.74986,5.99947 -15.74669,8.00034 -5.83504,1.99938 -12.50901,2.99826 -20.00209,2.99944 -7.83618,-5.9e-4 -15.24965,-1.49994 -22.2502,-4.50043 -6.83574,-3.16717 -12.9234,-7.41778 -18.25311,-12.75043 -5.16491,-5.49933 -9.33398,-11.8332 -12.49745,-18.99921 -2.99853,-7.33368 -4.50143,-15.24989 -4.49839,-23.75019 -0.007,-8.5007 1.49776,-16.33351 4.49434,-23.50021 3.17142,-7.33299 7.41425,-13.66714 12.74845,-19.00067 5.33735,-5.49971 11.50867,-9.74817 18.50436,-12.74876 7.17052,-3.16688 14.83552,-4.75053 22.99499,-4.75095 7.83617,5.9e-4 15.17041,1.4171 22.00256,4.25053 6.83229,2.83244 12.75158,6.91598 17.74795,12.24925 5.17123,5.16698 9.16875,11.49996 12.00248,19.00033 2.99853,7.33368 4.49662,15.49965 4.50405,24.50028 -0.006,1.33319 -0.082,2.66754 -0.24916,4.00025 -0.17397,1.16613 -0.33793,2.33267 -0.50201,3.5002 -0.16711,1.33271 -0.3327,2.58283 -0.49678,3.75036 l -78.75634,-7.8e-4 c 1.33991,4.33366 3.99923,8.33268 7.99778,11.99986 4.17023,3.66707 9.41632,5.49902 15.75781,5.5006 3.16093,-0.001 5.83317,-0.33343 7.99711,-1.00076 2.32873,-0.83402 4.16401,-1.74951 5.49619,-2.74984 1.66551,-1.00095 3.00236,-2.25005 4.00079,-3.74969 z M 765.55158,78.74943 c -6.33159,-1.9e-4 -11.57949,1.9171 -15.74358,5.75088 -3.99914,3.66611 -6.66826,7.99981 -8.00706,12.99914 l 47.50229,4e-5 c -1.32714,-4.99935 -4.08085,-9.33277 -8.25094,-13.00083 -3.99552,-3.83237 -9.15907,-5.74864 -15.50071,-5.74923 z m 1.25414,-76.24982 33.74846,-2.2e-4 -23.74432,32.50082 -26.25541,-7.5e-4 z m 131.15687,163.74941 c -4.9987,3.2e-4 -9.49128,-0.5826 -13.49787,-1.74957 -3.99338,-1.33274 -7.41777,-2.83393 -10.24348,-4.4994 -3.33721,-1.8343 -6.25564,-3.91775 -8.75533,-6.25034 l -4.99437,11.25041 -25.00321,-7.8e-4 -2.8e-4,-157.49972 33.74846,-2.2e-4 -0.003,51.2494 c 2.16623,-1.83336 4.7533,-3.49953 7.75124,-4.99949 2.49989,-1.33336 5.50145,-2.49988 9.00463,-3.49936 3.66489,-1.00028 7.66341,-1.50046 11.99559,-1.50064 7.16972,4.4e-4 13.99751,1.49968 20.5032,4.5004 6.49893,2.83325 12.16582,6.91656 17.00063,12.24974 4.99949,5.16708 8.9195,11.33365 11.7496,18.50027 3.0018,7.16652 4.49619,14.99972 4.50319,23.50043 0,8.49931 -1.50769,16.33211 -4.50439,23.49981 -2.8349,7.16619 -6.75281,13.41575 -11.7537,18.74866 -4.82631,5.16861 -10.4996,9.25076 -17.00033,12.25023 -6.49769,2.83428 -13.33123,4.25001 -20.50102,4.25017 z m 20.00108,-58.75014 c 0.006,-8.16556 -2.41079,-14.74905 -7.24193,-19.74908 -4.83803,-5.1666 -10.75603,-7.75038 -17.75415,-7.75032 -6.99811,5e-5 -12.91526,2.58368 -17.75133,7.74991 -4.8329,5.00005 -7.25267,11.58335 -7.24925,19.75031 0.003,8.16695 2.41918,14.83304 7.24716,19.99924 4.84106,5.00142 10.7508,7.50021 17.74891,7.50016 7.00802,0.001 12.92352,-2.49871 17.75643,-7.49876 4.8362,-5.16722 7.24758,-11.8345 7.24416,-20.00146 z m 154.98273,23.75058 c -1.4941,4.66748 -3.7522,9.166 -6.7445,13.50073 -3.0024,4.33333 -6.7539,8.24933 -11.2548,11.74899 -4.4976,3.33348 -9.7499,6.00046 -15.7466,8.00034 -5.8352,2.00037 -12.4992,3.00065 -20.0022,3.00043 -7.8362,-5.9e-4 -15.2496,-1.49994 -22.25027,-4.50043 -6.8357,-3.16717 -12.91343,-7.41639 -18.25304,-12.75043 -5.1649,-5.49933 -9.334,-11.8332 -12.4974,-18.99921 -2.99859,-7.33368 -4.5013,-15.25088 -4.4984,-23.75019 0,-8.49931 1.49771,-16.3335 4.4945,-23.5012 3.1712,-7.332 7.424,-13.66476 12.7582,-18.99839 5.3274,-5.5008 11.49884,-9.75015 18.49454,-12.75074 7.17037,-3.16609 14.83537,-4.74974 23.00487,-4.74927 7.8262,-9.9e-4 15.1604,1.41582 21.9926,4.24895 6.8422,2.83452 12.7515,6.91687 17.7579,12.25113 5.1611,5.16589 9.1587,11.49887 11.9925,18.99894 2.9986,7.3328 4.5065,15.50114 4.5041,24.50038 0,1.33459 -0.082,2.66655 -0.2493,4.00025 -0.1641,1.16753 -0.3379,2.33267 -0.502,3.5002 -0.167,1.33271 -0.3326,2.58283 -0.4967,3.75036 l -78.75627,-7.8e-4 c 1.3399,4.33366 3.99907,8.33268 8.00777,12.00026 4.1603,3.66568 9.4161,5.50001 15.7478,5.5002 3.1608,-0.001 5.8331,-0.33343 7.997,-1.00076 2.3386,-0.83262 4.1642,-1.7505 5.4963,-2.74984 1.6753,-0.99955 3.0022,-2.25005 4.0008,-3.75068 z m -52.4942,-52.49972 c -6.3418,-5.9e-4 -11.5896,1.9167 -15.7535,5.74949 -3.9994,3.6671 -6.66827,7.99981 -7.99717,13.00053 l 47.49227,-3.6e-4 c -1.3273,-4.99935 -4.0808,-9.33376 -8.2411,-12.99944 -4.0055,-3.83376 -9.1689,-5.75003 -15.5005,-5.75022 z m 123.6625,-31.24951 c 5.6652,-1.7e-4 10.8327,0.6666 15.4926,1.999 4.673,1.16752 8.8316,2.8331 12.5056,5.00083 3.6642,2.16623 6.8287,4.58266 9.4935,7.24909 2.8365,2.66701 5.2572,5.41758 7.2524,8.25032 4.6676,6.66678 8.087,14.16717 10.2485,22.49976 l -33.7464,2.50045 c -1.1639,-2.99957 -2.6674,-5.66677 -4.5005,-8 -1.6679,-2.00018 -3.9146,-3.83311 -6.7503,-5.50007 -2.6707,-1.83395 -5.9957,-2.7494 -10.0044,-2.75064 -6.9983,2.5e-4 -12.9154,2.58349 -17.7416,7.75121 -4.836,5.16633 -7.2537,12.16597 -7.2532,21.00002 7e-4,8.83305 2.4201,15.83289 7.2481,20.99909 4.8378,5.16759 10.7459,7.74997 17.7542,7.75032 3.9987,5.4e-4 7.3272,-0.83334 9.9951,-2.50026 2.8396,-1.66603 5.0865,-3.49915 6.7513,-5.49995 1.8325,-2.33366 3.33,-5.08403 4.5019,-8.24973 l 33.7505,2.50049 c -2.1708,8.33198 -5.5879,15.8324 -10.2512,22.49929 -2.0037,2.8327 -4.42,5.58318 -7.2487,8.25046 -2.6671,2.66676 -5.8343,5.0835 -9.5015,7.2502 -3.6671,2.16572 -7.8297,3.83362 -12.4975,5.00034 -4.6708,1.33191 -9.834,1.99983 -15.4991,1.9994 -8.1696,3e-5 -15.8353,-1.50045 -23.0075,-4.50083 -6.9974,-3.16666 -13.1659,-7.41652 -18.4958,-12.74917 -5.3363,-5.50022 -9.5862,-11.83432 -12.7496,-19.00033 -2.9988,-7.33269 -4.5014,-15.24989 -4.4985,-23.7492 -0.01,-8.50169 1.4978,-16.3345 4.4944,-23.5011 3.1713,-7.33269 7.4242,-13.66565 12.7483,-19.00028 5.3374,-5.49941 11.5089,-9.74876 18.5046,-12.74935 7.1704,-3.16618 14.8353,-4.74974 23.0048,-4.74936 z"
     fill="#f9dc46"
     id="path2"
     style="stroke-width:1" /><g
     style="fill:none"
     id="g2"
     transform="matrix(1.0291556,0.1446384,-0.14463838,1.0291557,2.5919278,-16.84143)"><path
       d="m 15.682,91.367 c 12.6067,-16.4158 27.8453,-15.6752 43.6342,-6.1324 14.9965,9.0532 17.9063,24.8704 19.6546,37.0484 0.0068,0.048 0.048,0.079 0.0961,0.073 l 8.3227,-1.17 c 0,0 0.0791,-0.048 0.0724,-0.096 C 85.0674,90.1762 75.9985,85.6005 68.0411,73.3995 61.0849,62.738 48.6999,43.5551 66.1053,13.6361 66.145,13.5692 66.0834,13.4798 66.0009,13.5036 29.1804,24.9211 6.11082,61.4005 11.7125,101.258 l 0.0405,0.289 c 0.2777,-3.5223 1.4914,-7.0166 3.929,-10.18 z"
       fill="#f9dc46"
       id="path1" /><path
       d="m 105.854,68.0851 c -4.288,13.9098 -11.7303,20.8183 -5.523,51.1959 0.007,0.048 0.048,0.079 0.096,0.073 l 8.311,-1.168 c 0,0 0.079,-0.048 0.072,-0.096 -1.676,-12.189 -3.239,-28.1953 8.681,-41.0314 12.559,-13.5269 27.003,-18.4391 43.634,-6.1324 3.286,2.4327 5.452,5.5379 6.667,8.9484 -0.026,-0.1804 -0.039,-0.3625 -0.064,-0.5429 l -0.061,-0.433 C 162.05,38.8468 129.936,10.3561 91.2081,9.86282 91.1359,9.87296 91.0997,9.96391 91.1442,10.019 116.237,34.0142 109.612,55.9055 105.856,68.0972 Z"
       fill="#f9dc46"
       id="path2-3" /><path
       d="m 146.237,111.775 c -0.06,0.008 -0.096,-0.072 -0.066,-0.126 2.993,-5.056 -0.42,-11.8005 -3.206,-14.0827 -2.814,-2.3028 -13.878,-7.1132 -20.649,5.7967 -2.257,4.622 -2.502,9.072 -2.13,13.116 0.007,0.048 0.048,0.079 0.096,0.072 l 14.877,-2.091 c 0,0 0.09,0.024 0.096,0.073 l 1.889,13.434 c 0,0 -0.025,0.089 -0.073,0.096 l -31.992,4.496 c 0,0 -0.079,0.048 -0.072,0.096 0.977,5.995 3.133,10.598 16.404,14.534 0.038,0.007 0.069,0.052 0.064,0.101 -0.745,5.698 -7.669,11.233 -12.771,11.239 -0.048,0.007 -0.08,0.036 -0.074,0.084 0.379,2.866 -0.1,6.441 -1.805,10.016 -0.028,0.065 0.018,0.133 0.091,0.122 36.285,-7.981 61.033,-39.497 61.625,-76.2141 -0.001,-0.098 -0.14,-0.1275 -0.163,-0.0262 -2.322,10.3583 -10.962,19.6553 -22.156,19.2423 z"
       fill="#f9dc46"
       id="path3" /><path
       d="m 90.2325,161.137 c -4.9069,1.389 -13.0887,-2.024 -15.3732,-7.283 -0.0051,-0.036 -0.0118,-0.084 0.0329,-0.115 11.6726,-7.442 12.4741,-12.473 11.7509,-18.491 -0.0068,-0.048 -0.0479,-0.079 -0.096,-0.072 l -31.2584,4.393 c 0,0 -0.0893,-0.024 -0.096,-0.073 l -1.8881,-13.434 c 0,0 0.0243,-0.089 0.0724,-0.096 l 14.1438,-1.988 c 0,0 0.0791,-0.048 0.0724,-0.096 -0.757,-3.99 -2.2211,-8.211 -5.6632,-12.02 -10.0653,-10.531 -19.3766,-2.87 -21.4463,0.119 -2.0489,2.962 -3.4691,10.398 0.8003,14.421 0.0429,0.043 0.029,0.119 -0.0295,0.14 -10.6571,3.496 -21.542,-3.093 -26.6187,-12.424 -0.0496,-0.091 -0.1889,-0.035 -0.1496,0.07 10.512,35.439 42.9353,58.882 80.3041,56.341 0.0722,-0.01 0.0981,-0.087 0.0536,-0.142 -2.6384,-2.978 -4.0977,-6.293 -4.5257,-9.164 -0.0068,-0.048 -0.0479,-0.079 -0.0943,-0.06 z"
       fill="#f9dc46"
       id="path4" /></g></svg>
